<svg width="47" height="36" viewBox="0 0 47 36" fill="none" xmlns="http://www.w3.org/2000/svg">
<path opacity="0.5" d="M39.1036 13.1474C38.6668 13.1492 38.2311 13.1909 37.8017 13.2719C37.8017 13.0969 37.8287 12.9257 37.8287 12.7468C37.8311 11.5357 37.5301 10.3437 36.9536 9.28177C36.3772 8.21984 35.544 7.32249 34.5317 6.67328C33.5194 6.02407 32.361 5.64411 31.1642 5.56878C29.9673 5.49345 28.7711 5.72519 27.6869 6.24244C27.0605 4.26947 25.7783 2.57572 24.0573 1.44792C22.3363 0.320129 20.2824 -0.172414 18.2431 0.0536778C16.2039 0.27977 14.3046 1.21061 12.8669 2.6886C11.4292 4.1666 10.5414 6.10094 10.3537 8.16417C10.0995 8.14472 9.85295 8.14472 9.60258 8.14472C7.05582 8.14472 4.61336 9.16649 2.81253 10.9852C1.0117 12.804 0 15.2707 0 17.8429C0 20.415 1.0117 22.8817 2.81253 24.7005C4.61336 26.5192 7.05582 27.541 9.60258 27.541H39.1036C40.9935 27.541 42.806 26.7828 44.1424 25.4331C45.4787 24.0834 46.2295 22.2529 46.2295 20.3442C46.2295 18.4355 45.4787 16.605 44.1424 15.2553C42.806 13.9057 40.9935 13.1474 39.1036 13.1474Z" fill="white"/>
<path d="M10.3279 15.2393C10.3279 20.6323 12.4702 25.8045 16.2837 29.6179C20.0972 33.4314 25.2694 35.5738 30.6625 35.5738C31.5837 35.5723 32.5039 35.5109 33.4171 35.3898C34.0313 35.2896 34.5882 34.97 34.9847 34.4903C35.3811 34.0106 35.59 33.4034 35.5728 32.7814V29.1777C35.5687 28.5898 35.3817 28.0177 35.0377 27.541C34.6936 27.0642 34.2097 26.7065 33.653 26.5174L29.238 25.0457C28.9737 24.9571 28.6941 24.9239 28.4164 24.948C28.1388 24.972 27.8691 25.0529 27.624 25.1856C27.379 25.3183 27.1638 25.5 26.9919 25.7194C26.82 25.9387 26.695 26.1911 26.6248 26.4607C26.537 26.8089 26.3585 27.1275 26.1076 27.3843C25.8567 27.6411 25.5423 27.8268 25.1963 27.9226C24.8503 28.0185 24.4851 28.021 24.1378 27.9299C23.7906 27.8388 23.4736 27.6574 23.2192 27.4041L18.474 22.6825C18.2207 22.4281 18.0392 22.1111 17.9482 21.7639C17.8571 21.4166 17.8596 21.0514 17.9554 20.7054C18.0513 20.3594 18.237 20.045 18.4938 19.7941C18.7506 19.5432 19.0692 19.3647 19.4173 19.2769C19.6891 19.2093 19.944 19.0862 20.166 18.9155C20.388 18.7447 20.5723 18.5299 20.7074 18.2846C20.8425 18.0392 20.9254 17.7686 20.951 17.4897C20.9766 17.2108 20.9442 16.9296 20.856 16.6638L19.3843 12.2488C19.195 11.6913 18.8365 11.2068 18.3588 10.8627C17.8811 10.5186 17.308 10.332 16.7193 10.329H13.1203C12.498 10.3107 11.8903 10.5193 11.4104 10.9159C10.9305 11.3125 10.6111 11.87 10.5118 12.4846C10.3884 13.3976 10.327 14.318 10.3279 15.2393Z" fill="white"/>
</svg>
