<svg width="32" height="32" viewBox="0 0 32 32" fill="none" xmlns="http://www.w3.org/2000/svg">
<path opacity="0.2" d="M7.19964 25.5986V25.4546C7.19964 24.0698 7.19964 22.7998 7.33835 21.7669C7.49099 20.6294 7.85097 19.427 8.83972 18.4383C9.82847 17.4495 11.0308 17.0895 12.1684 16.9369C13.1993 16.7992 14.4713 16.7992 15.856 16.7992H16.144C17.5287 16.7992 18.7987 16.7992 19.8316 16.9379C20.9692 17.0905 22.1711 17.4505 23.1603 18.4392C24.1495 19.428 24.5085 20.6303 24.6616 21.7679C24.7984 22.7854 24.8004 24.0334 24.8004 25.3941C28.9162 24.5143 32 20.8948 32 16.5625C32 12.6075 29.4288 9.24626 25.8481 8.02232C25.3379 3.50958 21.4645 0 16.7612 0C11.7114 0 7.61866 4.04524 7.61866 9.03507C7.61748 10.1068 7.8095 11.17 8.18551 12.1736C7.74772 12.0891 7.30282 12.0468 6.85694 12.0474C3.07185 12.0474 0 15.0804 0 18.8227C0 22.5651 3.07185 25.5986 6.85694 25.5986H7.19964Z" fill="#FF0000"/>
<path fill-rule="evenodd" clip-rule="evenodd" d="M15.9991 19.199C12.9824 19.199 11.4739 19.199 10.5369 20.1364C9.60003 21.0738 9.59955 22.5818 9.59955 25.5985C9.59955 28.6151 9.59955 30.1237 10.5369 31.0611C11.4743 31.9985 12.9848 31.9985 15.9991 31.9985C19.0133 31.9985 20.5243 31.9985 21.4617 31.0611C22.3991 30.1237 22.3991 28.6156 22.3991 25.5985C22.3991 22.5814 22.3991 21.0733 21.4617 20.1364C20.5243 19.1995 19.0162 19.199 15.9991 19.199ZM18.8866 24.1336L16.7536 22.0001C16.6545 21.901 16.537 21.8224 16.4075 21.7688C16.2781 21.7152 16.1394 21.6876 15.9993 21.6876C15.8592 21.6876 15.7205 21.7152 15.5911 21.7688C15.4617 21.8224 15.3441 21.901 15.245 22.0001L13.112 24.1336C12.9172 24.3346 12.8092 24.6042 12.8113 24.8842C12.8135 25.1642 12.9257 25.432 13.1237 25.63C13.3217 25.828 13.5895 25.9402 13.8695 25.9424C14.1495 25.9445 14.4191 25.8365 14.6201 25.6417L14.9326 25.3292V28.4428C14.9385 28.7218 15.0535 28.9874 15.2529 29.1826C15.4523 29.3779 15.7202 29.4872 15.9993 29.4872C16.2784 29.4872 16.5463 29.3779 16.7457 29.1826C16.9451 28.9874 17.0601 28.7218 17.0661 28.4428V25.3292L17.378 25.6417C17.578 25.8417 17.8493 25.9542 18.1322 25.9542C18.415 25.9542 18.6863 25.8419 18.8864 25.6419C19.0864 25.4419 19.1988 25.1707 19.1989 24.8878C19.1989 24.605 19.0866 24.3337 18.8866 24.1336Z" fill="#FF0000"/>
</svg>
