<svg width="37" height="37" viewBox="0 0 37 37" fill="none" xmlns="http://www.w3.org/2000/svg">
<path d="M28 4H8V9H28V4Z" fill="white"/>
<g opacity="0.5">
<path d="M26.9131 0H9.08686C6.27747 0 4 2.12638 4 4.7494V8.2506C4 10.8736 6.27747 13 9.08686 13H26.9131C29.7225 13 32 10.8736 32 8.2506V4.7494C32 2.12638 29.7225 0 26.9131 0Z" fill="white"/>
<path d="M22 12H15V17H22V12Z" fill="white"/>
</g>
<path d="M35.9416 32.3659L33.0177 18.6352C32.8335 17.7698 32.361 16.9943 31.679 16.4382C30.9971 15.882 30.1469 15.5788 29.2703 15.5791H20.3235H15.6929H6.756C5.8795 15.5791 5.02948 15.8825 4.34759 16.4386C3.66569 16.9947 3.1931 17.7699 3.00858 18.6352L0.0847251 32.3659C-0.034184 32.9244 -0.0278557 33.5026 0.103246 34.0583C0.234348 34.614 0.486902 35.133 0.842404 35.5774C1.19791 36.0217 1.64735 36.3801 2.1578 36.6263C2.66825 36.8725 3.22678 37.0002 3.79246 37.0002H32.2372C32.8026 36.9997 33.3607 36.8716 33.8708 36.6252C34.3808 36.3788 34.8298 36.0203 35.185 35.5761C35.5401 35.1318 35.7923 34.613 35.9233 34.0575C36.0542 33.5021 36.0604 32.9241 35.9416 32.3659Z" fill="white"/>
<path d="M11.281 22H8.62258C8.29368 22 7.97824 22.1307 7.74567 22.3632C7.5131 22.5958 7.38244 22.9112 7.38244 23.2401C7.38244 23.569 7.5131 23.8845 7.74567 24.1171C7.97824 24.3496 8.29368 24.4803 8.62258 24.4803H11.281C11.6099 24.4803 11.9253 24.3496 12.1579 24.1171C12.3905 23.8845 12.5211 23.569 12.5211 23.2401C12.5211 22.9112 12.3905 22.5958 12.1579 22.3632C11.9253 22.1307 11.6099 22 11.281 22ZM24.3131 24.4803H26.9715C27.3004 24.4803 27.6158 24.3496 27.8484 24.1171C28.081 23.8845 28.2116 23.569 28.2116 23.2401C28.2116 22.9112 28.081 22.5958 27.8484 22.3632C27.6158 22.1307 27.3004 22 26.9715 22H24.3131C23.9842 22 23.6688 22.1307 23.4362 22.3632C23.2036 22.5958 23.073 22.9112 23.073 23.2401C23.073 23.569 23.2036 23.8845 23.4362 24.1171C23.6688 24.3496 23.9842 24.4803 24.3131 24.4803ZM19.127 22H16.467C16.1381 22 15.8227 22.1307 15.5901 22.3632C15.3575 22.5958 15.2269 22.9112 15.2269 23.2401C15.2269 23.569 15.3575 23.8845 15.5901 24.1171C15.8227 24.3496 16.1381 24.4803 16.467 24.4803H19.127C19.4559 24.4803 19.7714 24.3496 20.004 24.1171C20.2365 23.8845 20.3672 23.569 20.3672 23.2401C20.3672 22.9112 20.2365 22.5958 20.004 22.3632C19.7714 22.1307 19.4559 22 19.127 22ZM26.9698 27.2514H24.3131C24.1466 27.2454 23.9805 27.2729 23.8249 27.3325C23.6692 27.3921 23.5272 27.4824 23.4072 27.5981C23.2873 27.7137 23.1919 27.8524 23.1267 28.0058C23.0615 28.1592 23.0279 28.3241 23.0279 28.4907C23.0279 28.6574 23.0615 28.8223 23.1267 28.9757C23.1919 29.1291 23.2873 29.2677 23.4072 29.3834C23.5272 29.4991 23.6692 29.5894 23.8249 29.649C23.9805 29.7085 24.1466 29.7361 24.3131 29.7301H26.9715C27.138 29.7361 27.3041 29.7085 27.4597 29.649C27.6153 29.5894 27.7574 29.4991 27.8773 29.3834C27.9973 29.2677 28.0927 29.1291 28.1579 28.9757C28.223 28.8223 28.2566 28.6574 28.2566 28.4907C28.2566 28.3241 28.223 28.1592 28.1579 28.0058C28.0927 27.8524 27.9973 27.7137 27.8773 27.5981C27.7574 27.4824 27.6153 27.3921 27.4597 27.3325C27.3041 27.2729 27.138 27.2454 26.9715 27.2514H26.9698ZM11.2842 27.2514H8.62258C8.45605 27.2454 8.29 27.2729 8.13436 27.3325C7.97872 27.3921 7.83668 27.4824 7.71672 27.5981C7.59677 27.7137 7.50135 27.8524 7.43619 28.0058C7.37102 28.1592 7.33743 28.3241 7.33743 28.4907C7.33743 28.6574 7.37102 28.8223 7.43619 28.9757C7.50135 29.1291 7.59677 29.2677 7.71672 29.3834C7.83668 29.4991 7.97872 29.5894 8.13436 29.649C8.29 29.7085 8.45605 29.7361 8.62258 29.7301H11.281C11.4475 29.7361 11.6136 29.7085 11.7692 29.649C11.9248 29.5894 12.0669 29.4991 12.1868 29.3834C12.3068 29.2677 12.4022 29.1291 12.4674 28.9757C12.5325 28.8223 12.5661 28.6574 12.5661 28.4907C12.5661 28.3241 12.5325 28.1592 12.4674 28.0058C12.4022 27.8524 12.3068 27.7137 12.1868 27.5981C12.0669 27.4824 11.9248 27.3921 11.7692 27.3325C11.6136 27.2729 11.4475 27.2454 11.281 27.2514H11.2842ZM19.127 27.2514H16.467C16.1461 27.2631 15.8422 27.3987 15.6193 27.6299C15.3964 27.861 15.2719 28.1696 15.2719 28.4907C15.2719 28.8119 15.3964 29.1204 15.6193 29.3516C15.8422 29.5827 16.1461 29.7184 16.467 29.7301H19.127C19.2936 29.7361 19.4596 29.7085 19.6153 29.649C19.7709 29.5894 19.9129 29.4991 20.0329 29.3834C20.1529 29.2677 20.2483 29.1291 20.3134 28.9757C20.3786 28.8223 20.4122 28.6574 20.4122 28.4907C20.4122 28.3241 20.3786 28.1592 20.3134 28.0058C20.2483 27.8524 20.1529 27.7137 20.0329 27.5981C19.9129 27.4824 19.7709 27.3921 19.6153 27.3325C19.4596 27.2729 19.2936 27.2454 19.127 27.2514Z" fill="#FF7F7F"/>
</svg>
