<svg width="43" height="32" viewBox="0 0 43 32" fill="none" xmlns="http://www.w3.org/2000/svg">
<path opacity="0.5" d="M27.2762 25.0552C27.5378 25.1856 34.3407 31.5309 34.3407 31.5309V6.99887C34.3407 6.47851 34.134 5.97945 33.7662 5.61143C33.3983 5.24341 32.8993 5.03655 32.3789 5.03634H19.5866C19.1321 5.03652 18.684 4.92921 18.2789 4.72316C17.8738 4.51711 17.5232 4.21818 17.2557 3.85076L15.3193 1.18558C15.0518 0.818163 14.7011 0.519226 14.2961 0.313179C13.891 0.107133 13.4429 -0.000181566 12.9884 2.30596e-07H2.23916C1.64523 0.000209806 1.07569 0.236297 0.655788 0.656347C0.235886 1.0764 -3.69751e-08 1.64602 0 2.23995L0 31.5285L13.8673 26.9522L27.2762 25.0552Z" fill="white"/>
<path d="M8.32592 15.049L0 31.5285H31.7735C32.5461 31.5285 33.3036 31.3143 33.9618 30.9097C34.6199 30.505 35.153 29.9258 35.5018 29.2364L42.8579 14.6775C42.9599 14.4754 43.0085 14.2504 42.9988 14.0242C42.9891 13.798 42.9216 13.578 42.8027 13.3853C42.6837 13.1927 42.5173 13.0337 42.3195 12.9237C42.1216 12.8136 41.8987 12.7562 41.6723 12.7568H12.0542C11.2815 12.7566 10.524 12.9708 9.86577 13.3754C9.20757 13.7801 8.67452 14.3594 8.32592 15.049Z" fill="white"/>
<path opacity="0.5" d="M7.74505 10.9305L0 32H29.5568C30.2755 32 30.9801 31.7261 31.5923 31.2088C32.2046 30.6915 32.7005 29.9509 33.0249 29.0695L39.8678 10.4556C39.9627 10.1972 40.0079 9.90959 39.9989 9.62036C39.9899 9.33112 39.9271 9.04989 39.8164 8.80354C39.7058 8.5572 39.551 8.35397 39.3669 8.21329C39.1828 8.07261 38.9756 7.99918 38.7649 8.00001H11.2132C10.4944 7.99975 9.78974 8.27353 9.17746 8.7909C8.56518 9.30827 8.06932 10.0489 7.74505 10.9305Z" fill="white"/>
</svg>
