<svg width="36" height="36" viewBox="0 0 36 36" fill="none" xmlns="http://www.w3.org/2000/svg">
<path opacity="0.2" d="M35.2972 15.7787L31.9823 15.1414C31.6241 13.2905 30.896 11.531 29.8415 9.96822L31.7348 7.16685C31.8463 7.00151 31.8968 6.80254 31.8776 6.60406C31.8584 6.40557 31.7708 6.21994 31.6298 6.07898L30.9551 5.40432L30.5816 5.0378L29.9069 4.36314C29.7657 4.22246 29.5799 4.13527 29.3814 4.11653C29.1829 4.09779 28.9841 4.14866 28.819 4.26042L26.0177 6.15368C24.4551 5.0989 22.6955 4.37076 20.8445 4.01297L20.2118 0.700343C20.1759 0.504527 20.0728 0.327392 19.9202 0.199525C19.7676 0.0716588 19.5752 0.00108841 19.3761 0L16.9366 0C16.7365 0.000360361 16.5429 0.070516 16.389 0.198367C16.2352 0.326219 16.1308 0.50375 16.0938 0.700343L15.4565 4.01297C13.6054 4.37033 11.8457 5.09851 10.2833 6.15368L7.48192 4.26042C7.31719 4.14884 7.11877 4.09806 6.9207 4.1168C6.72263 4.13554 6.53725 4.22264 6.39638 4.36314L5.72172 5.0378L5.3482 5.41132L4.66887 6.08598C4.52818 6.22723 4.441 6.41301 4.42226 6.61148C4.40352 6.80996 4.45439 7.00877 4.56615 7.17385L6.45941 9.97523C5.60141 11.2451 4.95787 12.6474 4.55448 14.1259H8.96664C9.82948 11.9964 11.4059 10.2333 13.426 9.13842C15.446 8.04359 17.7839 7.68524 20.0391 8.12478C22.2943 8.56432 24.3265 9.77438 25.7876 11.5477C27.2486 13.321 28.0476 15.5471 28.0476 17.8448C28.0476 20.1424 27.2486 22.3686 25.7876 24.1418C24.3265 25.9151 22.2943 27.1252 20.0391 27.5647C17.7839 28.0043 15.446 27.6459 13.426 26.5511C11.4059 25.4562 9.82948 23.6931 8.96664 21.5636H4.56382C4.9672 23.0429 5.61074 24.4459 6.46875 25.7166L4.57549 28.518C4.46373 28.6831 4.41286 28.8819 4.4316 29.0804C4.45034 29.2788 4.53752 29.4646 4.67821 29.6059L5.35287 30.2805L5.72639 30.654L6.40105 31.3264C6.5414 31.4676 6.72668 31.5554 6.92488 31.5746C7.12308 31.5938 7.32176 31.5431 7.48658 31.4314L10.288 29.5382C11.8507 30.5926 13.6103 31.3207 15.4612 31.6789L16.0985 34.9962C16.1354 35.1928 16.2398 35.3703 16.3937 35.4981C16.5475 35.626 16.7412 35.6961 16.9412 35.6965H19.3761C19.576 35.6965 19.7695 35.6264 19.9231 35.4985C20.0766 35.3705 20.1805 35.1928 20.2165 34.9962L20.8561 31.6789C22.7068 31.32 24.4662 30.592 26.0293 29.5382L28.8307 31.4314C28.9959 31.5433 29.195 31.5941 29.3936 31.5749C29.5922 31.5557 29.7779 31.4678 29.9186 31.3264L30.5933 30.654L30.9644 30.2805L31.6391 29.6059C31.7801 29.4649 31.8678 29.2793 31.8869 29.0808C31.9061 28.8823 31.8556 28.6833 31.7441 28.518L29.8509 25.7166C30.9014 24.1528 31.6263 22.3934 31.9823 20.5434L35.2996 19.9061C35.4962 19.8691 35.6737 19.7647 35.8015 19.6109C35.9294 19.457 35.9995 19.2634 35.9999 19.0633V16.6215C35.9994 16.4211 35.9289 16.2272 35.8006 16.0733C35.6723 15.9194 35.4942 15.8152 35.2972 15.7787Z" fill="#FF0000"/>
<path d="M22.5767 16.8782L17.7957 11.7984C17.541 11.5279 17.1891 11.3696 16.8177 11.3584C16.4462 11.3473 16.0855 11.4841 15.8149 11.7389C15.5444 11.9937 15.3861 12.3455 15.3749 12.717C15.3638 13.0884 15.5006 13.4491 15.7554 13.7197L18.3233 16.437H1.40069C1.0292 16.437 0.672931 16.5846 0.410252 16.8473C0.147572 17.11 0 17.4662 0 17.8377C0 18.2092 0.147572 18.5655 0.410252 18.8282C0.672931 19.0908 1.0292 19.2384 1.40069 19.2384H18.3163L15.7484 21.9581C15.4936 22.2286 15.3568 22.5893 15.3679 22.9608C15.3791 23.3323 15.5374 23.6841 15.8079 23.9389C16.0785 24.1937 16.4392 24.3305 16.8106 24.3193C17.1821 24.3082 17.5339 24.1499 17.7887 23.8793L22.5767 18.7995C22.8217 18.5396 22.9581 18.196 22.9581 17.8389C22.9581 17.4818 22.8217 17.1381 22.5767 16.8782Z" fill="#FF0000"/>
</svg>
