<svg width="33" height="34" viewBox="0 0 33 34" fill="none" xmlns="http://www.w3.org/2000/svg">
<path opacity="0.2" d="M16.5093 26.5099C15.9086 26.5099 15.3067 26.5099 14.7047 26.5099C13.5602 26.5099 13.3062 26.2521 13.2869 25.1178C13.2637 23.9436 12.4233 23.1651 11.3432 23.361C11.0377 23.4164 10.749 23.5904 10.4654 23.7374C9.74744 24.106 9.30533 24.0016 8.9006 23.3082C8.21488 22.1481 7.54205 20.9726 6.8705 19.7996C6.41035 18.9953 6.55471 18.6241 7.30488 18.0841C7.71606 17.7889 8.12465 17.3738 8.31928 16.924C8.62348 16.2138 8.2123 15.4752 7.42991 14.9996C6.4748 14.4183 6.38586 14.0844 6.93624 13.128C7.58072 12.0131 8.22519 10.8969 8.86966 9.7858C9.31693 9.02016 9.78353 8.84615 10.5118 9.35013C11.8226 10.2524 13.448 9.32693 13.3037 7.72605C13.2302 6.89468 13.6233 6.5428 14.4521 6.53378C15.827 6.52089 17.2019 6.52089 18.5767 6.53378C19.4042 6.5428 19.8 6.89597 19.7226 7.72734C19.5757 9.29471 21.1727 10.2692 22.5158 9.35013C23.2466 8.85002 23.7093 9.01887 24.1592 9.7858C24.8415 10.9527 25.5169 12.1227 26.1854 13.2956C26.6043 14.0303 26.518 14.5382 25.7562 14.8887C24.2778 15.568 24.2597 17.4666 25.7562 18.1549C26.5167 18.5068 26.603 19.0121 26.1854 19.7481C25.5293 20.9081 24.8617 22.054 24.1927 23.2038C23.7068 24.039 23.3085 24.1421 22.4513 23.6704C21.3493 23.0646 20.2601 23.3481 19.8734 24.3715C19.7808 24.6777 19.7373 24.9966 19.7445 25.3163C19.7136 26.1542 19.403 26.4841 18.5755 26.5125H16.5131L16.5093 26.5099ZM20.2202 16.527C20.2149 15.5512 19.8283 14.616 19.1429 13.9214C18.4574 13.2268 17.5275 12.8278 16.5518 12.8097C14.5256 12.7774 12.8138 14.4711 12.801 16.509C12.8078 17.4844 13.1949 18.4187 13.88 19.1132C14.5651 19.8077 15.494 20.2075 16.4693 20.2276C18.493 20.2585 20.2124 18.561 20.2202 16.527Z" fill="#FF0000"/>
<path d="M2.19167 13.8937C3.96655 3.62979 16.2051 -1.48089 24.7238 4.49854C24.867 4.61345 25.0043 4.73563 25.135 4.8646C24.3281 4.97545 23.6282 5.0631 22.9309 5.16879C22.2864 5.26547 21.9397 5.68437 22.0131 6.26053C22.0281 6.38897 22.0691 6.51301 22.1335 6.6251C22.198 6.73719 22.2846 6.83499 22.388 6.91253C22.4915 6.99008 22.6097 7.04574 22.7354 7.07613C22.861 7.10653 22.9916 7.11102 23.1191 7.08933C24.6091 6.9063 26.0978 6.70264 27.5827 6.48352C28.2375 6.38427 28.521 5.94861 28.4334 5.28222C28.2504 3.87727 28.0626 2.4736 27.8701 1.07122C27.7696 0.342968 27.3172 -0.0578951 26.741 0.040065C26.1648 0.138025 25.8581 0.649738 25.9586 1.37413C26.0347 1.92064 26.1055 2.46845 26.1803 3.02785C26.0888 3.01754 26.0398 3.02785 26.0076 3.00723C25.8619 2.91829 25.7202 2.82033 25.5758 2.72752C21.5762 0.167671 17.2466 -0.618588 12.6322 0.488619C5.59192 2.18101 0.603685 8.09986 0.0494371 15.3605C-0.169867 18.1365 0.343026 20.9214 1.53688 23.4371C1.86557 24.1408 2.51004 24.3857 3.03336 23.9991C3.55667 23.6124 3.51671 23.12 3.26794 22.5683C2.01122 19.7906 1.67609 16.9034 2.19167 13.8937ZM32.8261 14.2275C32.5915 12.6163 31.9329 11.0657 31.4341 9.49837C31.2807 9.01502 30.8373 8.73532 30.3668 8.91577C30.0459 9.04466 29.7533 9.39912 29.5934 9.72523C29.5032 9.91213 29.6708 10.2563 29.7803 10.4986C31.1107 13.4369 31.428 16.7337 30.6826 19.8718C28.4257 29.7259 16.6124 34.3081 8.31805 28.5426C8.18915 28.4537 8.07959 28.3364 7.89012 28.1701C8.71247 28.0567 9.43686 27.9677 10.1445 27.8543C10.7413 27.7602 11.0777 27.3297 11.0184 26.7845C11.0058 26.6553 10.9669 26.5301 10.904 26.4166C10.8411 26.303 10.7557 26.2036 10.6529 26.1244C10.5501 26.0451 10.4322 25.9878 10.3064 25.9559C10.1806 25.924 10.0496 25.9182 9.9215 25.9389C8.42804 26.1245 6.93844 26.329 5.45271 26.5525C4.79277 26.6504 4.4976 27.0822 4.58267 27.7422C4.7657 29.1463 4.95389 30.5495 5.14723 31.9519C5.25035 32.6892 5.68859 33.09 6.26346 32.9998C6.83833 32.9096 7.16573 32.3966 7.0639 31.6786C6.98785 31.1282 6.91438 30.5779 6.82287 29.905C7.16573 30.1293 7.37583 30.2724 7.59624 30.4064C11.8846 33.0733 16.4745 33.7461 21.3042 32.3038C25.0772 31.1797 28.3187 28.7335 30.4347 25.4136C32.5506 22.0936 33.3992 18.1223 32.8248 14.2275H32.8261Z" fill="#FF0000"/>
</svg>
