<svg width="39" height="35" viewBox="0 0 39 35" fill="none" xmlns="http://www.w3.org/2000/svg">
<path opacity="0.5" d="M18 0.419757L0 11.2998L19.45 30.9998L38.9 11.2998L21 0.419757C20.5478 0.145193 20.029 0 19.5 0C18.971 0 18.4522 0.145193 18 0.419757Z" fill="white"/>
<path opacity="0.5" d="M4.91 4.47998H34C34.6073 4.47998 35.1898 4.72125 35.6193 5.15071C36.0487 5.58016 36.29 6.16263 36.29 6.76998V24.07H2.62V6.75998C2.62264 6.15437 2.86507 5.57446 3.29425 5.14717C3.72342 4.71987 4.30438 4.47997 4.91 4.47998Z" fill="white"/>
<path d="M19.45 23.1L0 11.3V31.74C0 32.5755 0.331874 33.3767 0.922614 33.9674C1.51335 34.5582 2.31457 34.89 3.15 34.89H35.75C36.5854 34.89 37.3866 34.5582 37.9774 33.9674C38.5681 33.3767 38.9 32.5755 38.9 31.74V11.3L19.45 23.1Z" fill="white"/>
</svg>
