<svg width="26" height="30" viewBox="0 0 26 30" fill="none" xmlns="http://www.w3.org/2000/svg">
<path opacity="0.2" d="M25.766 16.8772V11.6279C25.766 7.46699 25.8622 5.41848 24.3257 3.65823C23.5695 2.79138 22.1857 2.40566 20.9738 2.23755C20.9767 2.30227 20.9782 2.36647 20.9782 2.43273C20.9785 2.98929 20.8691 3.54044 20.6563 4.05469C20.4434 4.56893 20.1313 5.03618 19.7377 5.42971C19.3442 5.82325 18.8769 6.13534 18.3627 6.34816C17.8484 6.56098 17.2972 6.67035 16.7407 6.67001H9.027C8.47041 6.67035 7.91921 6.56099 7.40491 6.34818C6.8906 6.13537 6.42329 5.82328 6.02967 5.42976C5.63605 5.03624 5.32385 4.569 5.11092 4.05475C4.89798 3.5405 4.78848 2.98932 4.78869 2.43273C4.78869 2.3675 4.79049 2.30227 4.79333 2.23755C3.5815 2.40566 2.19743 2.79138 1.44146 3.65823C-0.0947333 5.41848 0.00118203 7.46699 0.00118203 11.6279V20.4849C0.00118203 24.6456 -0.0947333 26.6941 1.44146 28.4546C2.97764 30.2151 7.10689 29.9908 7.10689 29.9908H18.6603C18.6603 29.9908 22.7893 30.2149 24.3255 28.4546C25.8616 26.6944 25.7657 24.6456 25.7657 20.4849L25.766 16.8772Z" fill="#FF0000"/>
<path d="M16.7407 0H9.02676C7.68336 0 6.59433 1.08903 6.59433 2.43243V2.43269C6.59433 3.77608 7.68336 4.86511 9.02676 4.86511H16.7407C18.0841 4.86511 19.1731 3.77608 19.1731 2.43269V2.43243C19.1731 1.08903 18.0841 0 16.7407 0Z" fill="#FF0000"/>
<path d="M18.4207 12.5149H7.34693C6.73703 12.5149 6.24261 13.0093 6.24261 13.6192C6.24261 14.2291 6.73703 14.7235 7.34693 14.7235H18.4207C19.0306 14.7235 19.5251 14.2291 19.5251 13.6192C19.5251 13.0093 19.0306 12.5149 18.4207 12.5149Z" fill="#FF0000"/>
<path d="M12.852 19.5566H7.34693C6.73703 19.5566 6.24261 20.0511 6.24261 20.661C6.24261 21.2708 6.73703 21.7653 7.34693 21.7653H12.852C13.4619 21.7653 13.9563 21.2708 13.9563 20.661C13.9563 20.0511 13.4619 19.5566 12.852 19.5566Z" fill="#FF0000"/>
</svg>
