<svg width="1768" height="1768" viewBox="0 0 1768 1768" fill="none" xmlns="http://www.w3.org/2000/svg">
<path opacity="0.05" d="M884 1020.76C959.532 1020.76 1020.76 959.532 1020.76 884C1020.76 808.468 959.532 747.237 884 747.237C808.468 747.237 747.237 808.468 747.237 884C747.237 959.532 808.468 1020.76 884 1020.76Z" stroke="#2C3A93" stroke-width="2" stroke-miterlimit="10"/>
<path opacity="0.05" d="M884 1518.26C1234.29 1518.26 1518.26 1234.29 1518.26 884C1518.26 533.709 1234.29 249.742 884 249.742C533.709 249.742 249.742 533.709 249.742 884C249.742 1234.29 533.709 1518.26 884 1518.26Z" stroke="#2C3A93" stroke-width="2" stroke-miterlimit="10"/>
<path opacity="0.05" d="M884 1767C1371.67 1767 1767 1371.67 1767 884C1767 396.333 1371.67 1 884 1C396.333 1 1 396.333 1 884C1 1371.67 396.333 1767 884 1767Z" stroke="#2C3A93" stroke-width="2" stroke-miterlimit="10"/>
</svg>
