<svg width="27" height="30" viewBox="0 0 27 30" fill="none" xmlns="http://www.w3.org/2000/svg">
<path opacity="0.2" d="M0.5661 4.62375C0 5.4306 0 7.83 0 12.6252V14.9872C0 23.445 6.3585 27.5481 10.35 29.2909C11.43 29.7634 11.97 30.0001 13.5 30.0001C15.03 30.0001 15.57 29.7634 16.6523 29.2909C20.6415 27.5481 27 23.445 27 14.9872V12.6252C27 7.82865 27 5.4306 26.4339 4.62375C25.8678 3.8169 23.6124 3.04515 19.1025 1.5012L18.2435 1.2069C15.8927 0.4023 14.7173 0 13.5 0C12.2828 0 11.1074 0.4023 8.75655 1.2069L7.8975 1.5012C3.3876 3.04515 1.13265 3.8169 0.5661 4.62375Z" fill="#FF0000"/>
<path d="M18.09 12.7494C18.1885 12.6391 18.2642 12.5106 18.313 12.3711C18.3618 12.2315 18.3826 12.0838 18.3743 11.9362C18.3659 11.7886 18.3286 11.6442 18.2644 11.511C18.2003 11.3779 18.1105 11.2587 18.0002 11.1602C17.89 11.0618 17.7615 10.986 17.6219 10.9372C17.4824 10.8884 17.3346 10.8676 17.1871 10.876C17.0395 10.8843 16.895 10.9216 16.7619 10.9858C16.6287 11.05 16.5095 11.1397 16.4111 11.25L11.8931 16.3107L10.5881 14.8509C10.4897 14.7407 10.3705 14.6509 10.2375 14.5868C10.1044 14.5226 9.95997 14.4853 9.81246 14.4769C9.66495 14.4685 9.51725 14.4893 9.37777 14.538C9.2383 14.5868 9.10978 14.6625 8.99957 14.7609C8.88936 14.8593 8.79961 14.9784 8.73544 15.1115C8.67127 15.2446 8.63394 15.389 8.62558 15.5365C8.6087 15.8344 8.71086 16.1268 8.90957 16.3494L11.0525 18.7492C11.158 18.8674 11.2873 18.9619 11.4319 19.0266C11.5765 19.0913 11.7331 19.1248 11.8915 19.1248C12.0499 19.1248 12.2065 19.0913 12.3511 19.0266C12.4957 18.9619 12.625 18.8674 12.7305 18.7492L18.09 12.7494Z" fill="#FF0000"/>
</svg>
