<svg width="137" height="46" viewBox="0 0 137 46" fill="none" xmlns="http://www.w3.org/2000/svg">
<path d="M11.6118 4.67875L12.2485 0.11458H12.3434L14.2107 3.86031L16.0661 0.11458H16.1353L16.7933 4.67875H16.3495L15.8912 1.41123L14.2681 4.67875H14.1482L12.5064 1.38563L12.0694 4.67875H11.6118ZM20.4997 0.11458H23.1261V0.562194H20.9598V1.98994H23.1068V2.43506H20.9598V4.23426H23.1068V4.67875H20.4997V0.11458ZM26.7289 4.67875V0.11458H27.6809C28.3672 0.11458 28.8654 0.169309 29.1755 0.278768C29.6048 0.421845 29.9728 0.706446 30.2193 1.08597C30.469 1.46887 30.5939 1.92481 30.5939 2.45379C30.6031 2.8753 30.5003 3.29171 30.2961 3.66054C30.1194 3.98768 29.851 4.25609 29.5238 4.43278C29.2067 4.59926 28.7618 4.6825 28.1891 4.6825L26.7289 4.67875ZM27.1703 4.24549H27.6997C28.3321 4.24549 28.7697 4.20616 29.015 4.12813C29.3466 4.02548 29.633 3.81245 29.8266 3.52444C30.0239 3.23311 30.1223 2.87789 30.1219 2.45878C30.1219 2.02178 30.0151 1.64221 29.801 1.33069C29.5883 1.01857 29.2725 0.791355 28.9089 0.688925C28.623 0.604438 28.1512 0.562194 27.4936 0.562194H27.1703V4.24549ZM34.2303 0.11458H34.6904V4.67875H34.2303V0.11458ZM42.8262 0.956744L42.4641 1.2333C42.2747 0.982933 42.0284 0.781329 41.7455 0.645225C41.457 0.510303 41.1419 0.442026 40.8234 0.445453C40.4676 0.443008 40.1173 0.533381 39.8071 0.707654C39.5052 0.871954 39.2539 1.11568 39.0804 1.41247C38.9067 1.7148 38.8177 2.05833 38.8226 2.40697C38.8159 2.66673 38.8637 2.92501 38.9628 3.1652C39.062 3.40539 39.2103 3.62218 39.3982 3.80163C39.7815 4.1762 40.2653 4.36348 40.8497 4.36348C41.4918 4.36348 42.0291 4.11377 42.4616 3.61434L42.8237 3.8884C42.5955 4.17644 42.3018 4.40587 41.9671 4.55764C41.6068 4.7197 41.2154 4.80089 40.8203 4.79549C40.0171 4.79549 39.3836 4.52954 38.92 3.99765C38.5317 3.549 38.3371 3.00795 38.3363 2.3745C38.3295 2.05945 38.3889 1.74647 38.5106 1.4558C38.6323 1.16513 38.8137 0.903238 39.043 0.687052C39.5145 0.229241 40.1049 0.000335209 40.8141 0.000335209C41.2149 -0.00606836 41.6119 0.0793508 41.9746 0.25005C42.3125 0.411674 42.605 0.654469 42.8262 0.956744ZM48.431 0.11458L50.5723 4.67875H50.0798L49.3625 3.18046H47.3735L46.6612 4.67875H46.1499L48.3161 0.11458H48.431ZM48.3736 1.07224L47.5845 2.73347H49.1602L48.3736 1.07224ZM54.0889 0.11458H54.549V4.23488H56.3189V4.67937H54.0889V0.11458ZM64.1637 0.11458H65.0789C65.6033 0.11458 65.9571 0.137262 66.1402 0.182627C66.392 0.240387 66.6178 0.379489 66.7826 0.578426C66.9532 0.79001 67.0418 1.05596 67.0323 1.32757C67.043 1.59938 66.9565 1.86612 66.7882 2.07984C66.6155 2.28351 66.3798 2.42369 66.1183 2.47813C65.9102 2.52808 65.5211 2.55284 64.9509 2.55242H64.6232V4.675H64.1631V0.11458H64.1637ZM64.6244 0.562194V2.11043L65.4017 2.11979C65.7159 2.11979 65.946 2.09128 66.0921 2.03427C66.233 1.98115 66.3534 1.88477 66.4361 1.75895C66.519 1.6321 66.5625 1.4835 66.561 1.33194C66.5619 1.18242 66.5184 1.036 66.4361 0.911171C66.3574 0.788277 66.2418 0.69344 66.1059 0.64023C65.9698 0.585917 65.7469 0.559697 65.436 0.559697L64.6244 0.562194ZM70.7549 0.117077H71.215V4.23738H72.9861V4.68187H70.7549V0.117077ZM78.395 0.117077L80.5363 4.68125H80.0431L79.3264 3.18296H77.3374L76.6245 4.68125H76.1132L78.2795 0.117077H78.395ZM78.3375 1.07473L77.5484 2.73597H79.1235L78.3375 1.07473ZM83.5984 0.562194V0.11458H86.1099V0.562194H85.0905V4.6825H84.6235V0.562194H83.5984ZM89.5853 0.11458H91.8858V0.562194H90.0454V1.98994H91.8858V2.43506H90.0454V4.67875H89.5853V0.11458ZM97.6786 0.000335209C98.3732 0.000335209 98.9544 0.230906 99.4222 0.692046C99.6503 0.912076 99.8304 1.17691 99.9511 1.46989C100.072 1.76287 100.131 2.07766 100.124 2.39448C100.126 2.71074 100.064 3.02418 99.9439 3.31658C99.8233 3.60899 99.6459 3.87452 99.4219 4.09774C99.1978 4.32097 98.9316 4.49744 98.6388 4.61691C98.346 4.73637 98.0323 4.79644 97.7161 4.79362C97.397 4.80055 97.0799 4.74247 96.784 4.6229C96.4881 4.50334 96.2196 4.3248 95.9949 4.09816C95.7686 3.88122 95.5896 3.61996 95.4688 3.33069C95.3481 3.04142 95.2883 2.73037 95.2932 2.41695C95.2902 1.98925 95.4005 1.56836 95.6128 1.1971C95.8186 0.829938 96.1209 0.525994 96.4868 0.318098C96.8487 0.107977 97.2601 -0.00172114 97.6786 0.000335209ZM97.6992 0.445453C97.3597 0.445395 97.0264 0.536371 96.7341 0.708902C96.4375 0.877621 96.1915 1.12272 96.0217 1.41872C95.8495 1.72315 95.7612 2.06784 95.7658 2.41758C95.7604 2.67323 95.808 2.92722 95.9056 3.16358C96.0031 3.39994 96.1485 3.61357 96.3326 3.79101C96.5104 3.97244 96.7232 4.11581 96.9582 4.2124C97.1931 4.30899 97.4452 4.35679 97.6992 4.35287C98.0455 4.35527 98.3863 4.26657 98.6875 4.09566C98.9842 3.93024 99.2296 3.68614 99.3966 3.39022C99.5675 3.08756 99.6554 2.74513 99.6513 2.3976C99.6558 2.05338 99.5678 1.71427 99.3966 1.4156C99.2251 1.12145 98.9775 0.878866 98.68 0.713272C98.3831 0.53893 98.0453 0.44651 97.7011 0.445453H97.6992ZM103.88 0.11458H104.796C105.306 0.11458 105.652 0.13539 105.833 0.177009C106.094 0.230675 106.329 0.371071 106.499 0.575304C106.673 0.786713 106.764 1.05402 106.756 1.32757C106.761 1.55788 106.699 1.78477 106.579 1.9812C106.459 2.17219 106.282 2.32134 106.074 2.40821C105.856 2.50435 105.553 2.55347 105.168 2.55555L106.819 4.67813H106.258L104.606 2.55555H104.341V4.67813H103.882V0.11458H103.88ZM104.34 0.562194V2.11043L105.133 2.11667C105.441 2.11667 105.668 2.08795 105.815 2.0299C105.956 1.97621 106.077 1.87918 106.16 1.75271C106.242 1.62581 106.286 1.47724 106.284 1.3257C106.286 1.17702 106.243 1.03131 106.16 0.90805C106.081 0.786578 105.966 0.692914 105.831 0.64023C105.692 0.585917 105.468 0.562194 105.152 0.562194H104.34ZM110.345 4.6825L110.982 0.118326H111.076L112.943 3.86405L114.798 0.118326H114.869L115.529 4.6825H115.085L114.625 1.41497L113.002 4.6825H112.881L111.24 1.38938L110.803 4.6825H110.345Z" fill="#FF0000"/>
<path fill-rule="evenodd" clip-rule="evenodd" d="M0 10.1294H1.5807V11.7107H0V10.1294Z" fill="#FF0000"/>
<path fill-rule="evenodd" clip-rule="evenodd" d="M3.16141 10.1294H4.74273V11.7107H3.16141V10.1294Z" fill="#FF0000"/>
<path fill-rule="evenodd" clip-rule="evenodd" d="M6.32343 10.1294H7.90412V11.7107H6.32343V10.1294Z" fill="#FF0000"/>
<path fill-rule="evenodd" clip-rule="evenodd" d="M132.508 2.72598H127.831V9.9184H129.415V4.30792H132.511C133.283 4.30792 134.024 4.61462 134.57 5.16055C135.116 5.70648 135.422 6.44692 135.422 7.21898C135.422 7.99104 135.116 8.73147 134.57 9.2774C134.024 9.82333 133.283 10.13 132.511 10.13H9.4848V11.7114H132.508C133.699 11.7076 134.84 11.2327 135.681 10.3905C136.523 9.54824 136.997 8.40714 137 7.21648C136.996 6.02647 136.522 4.88631 135.68 4.04496C134.839 3.20361 133.698 2.72943 132.508 2.72598ZM122.009 9.9184V2.72598H120.428V9.9184H122.009ZM120.428 11.9242V14.796C120.431 15.9873 120.905 17.129 121.748 17.9714C122.59 18.8138 123.732 19.2882 124.923 19.2908C126.114 19.2872 127.255 18.8124 128.096 17.9701C128.938 17.1278 129.412 15.9866 129.414 14.796V11.9242H127.834V14.796C127.834 15.568 127.527 16.3085 126.981 16.8544C126.435 17.4003 125.695 17.707 124.923 17.707C124.15 17.707 123.41 17.4003 122.864 16.8544C122.318 16.3085 122.011 15.568 122.011 14.796V11.9242H120.428Z" fill="#FF0000"/>
<path d="M39.6192 16.9135H42.2805V42.0349H52.5176V44.7487H39.6192V16.9135Z" fill="#FF0000"/>
<path d="M55.1608 16.9135H57.8222V44.7487H55.1608V16.9135Z" fill="#FF0000"/>
<path d="M60.5634 44.7487V16.9135H61.1359L78.7826 38.203V16.9135H81.4434V44.7487H80.8403L63.2978 23.6459V44.7487H60.5634Z" fill="#FF0000"/>
<path d="M84.1284 16.9135H86.7891V44.7487H84.1284V16.9135Z" fill="#FF0000"/>
<path fill-rule="evenodd" clip-rule="evenodd" d="M103.811 16.9129C106.078 16.9115 108.312 17.4545 110.326 18.4964C112.339 19.5382 114.073 21.0484 115.382 22.8998L113.428 24.3931C112.349 22.8422 110.912 21.5754 109.238 20.7008C107.563 19.8262 105.702 19.3698 103.813 19.3707C97.3421 19.3707 92.0962 24.6148 92.0962 31.0874C92.0962 37.56 97.3402 42.8046 103.813 42.8046C105.694 42.8058 107.547 42.3537 109.216 41.4866C110.885 40.6195 112.32 39.363 113.401 37.8234L115.354 39.3167C114.044 41.1568 112.313 42.6566 110.304 43.6907C108.296 44.7249 106.07 45.2634 103.811 45.2612C95.9824 45.2612 89.6396 38.9153 89.6396 31.0899C89.6396 23.2644 95.9855 16.9185 103.811 16.9185V16.9129Z" fill="#FF0000"/>
<path fill-rule="evenodd" clip-rule="evenodd" d="M25.2393 16.9129C27.5065 16.9113 29.741 17.4542 31.7546 18.4961C33.7682 19.5379 35.5022 21.0482 36.8105 22.8998L34.8571 24.3931C33.4316 22.3457 31.3898 20.8067 29.029 20.0002C26.6682 19.1936 24.1115 19.1615 21.7312 19.9087C19.3509 20.6559 17.2712 22.1432 15.7949 24.1543C14.3185 26.1653 13.5225 28.5951 13.5227 31.0899C13.5227 37.5606 18.7667 42.8071 25.2393 42.8071C27.1201 42.8083 28.9734 42.3562 30.6424 41.4891C32.3114 40.622 33.7468 39.3655 34.8271 37.8259L36.7805 39.3192C35.4703 41.1585 33.7391 42.6576 31.7313 43.6913C29.7235 44.725 27.4976 45.2633 25.2393 45.2612C17.4114 45.2612 11.068 38.9153 11.068 31.0899C11.068 23.2644 17.4139 16.9185 25.2393 16.9185V16.9129Z" fill="#FF0000"/>
</svg>
