<?xml version="1.0" standalone="no"?>
<!DOCTYPE svg PUBLIC "-//W3C//DTD SVG 1.1//EN" "http://www.w3.org/Graphics/SVG/1.1/DTD/svg11.dtd" >
<svg xmlns="http://www.w3.org/2000/svg">
<metadata>Generated by IcoMoon</metadata>
<defs>
<font id="icomoon" horiz-adv-x="1024">
<font-face units-per-em="1024" ascent="960" descent="-64" />
<missing-glyph horiz-adv-x="1024" />
<glyph unicode="&#x20;" horiz-adv-x="512" d="" />
<glyph unicode="&#xe900;" glyph-name="profile-oval" d="M1024 448.008c0 282.101-229.893 511.992-512.008 511.992s-511.992-229.892-511.992-511.992c0-148.482 64.005-282.114 165.38-375.81 0-0.507 0-0.507-0.522-1.029 5.13-5.115 11.274-9.216 16.389-13.824 2.777-2.538 5.684-4.926 8.709-7.157 9.216-7.68 19.446-14.853 29.183-22.027 3.579-2.549 6.651-4.608 10.23-7.157 9.867-6.748 20.124-12.902 30.72-18.432 3.594-2.059 7.68-4.608 11.274-6.667 10.45-5.734 21.219-10.86 32.256-15.36 3.996-2.086 8.097-3.961 12.288-5.621 11.263-4.608 22.527-8.704 33.791-12.288 4.016-1.595 8.118-2.964 12.288-4.101 12.288-3.579 24.576-6.651 36.864-9.723 3.677-1.159 7.442-2.016 11.259-2.565 14.374-3.002 28.9-5.222 43.515-6.651 2.082-0.097 4.145-0.442 6.144-1.029 17.418-1.536 34.821-2.565 52.224-2.565s34.818 1.029 51.714 2.565c2.086 0.086 4.15 0.431 6.144 1.029 14.616 1.423 29.146 3.643 43.515 6.651 3.595 0.507 7.173 2.043 11.275 2.565 12.288 3.072 25.083 5.621 36.864 9.723 4.015 1.595 8.122 2.964 12.288 4.101 11.259 4.085 23.040 7.68 33.792 12.288 4.188 1.665 8.289 3.541 12.288 5.621 10.752 4.608 21.504 9.728 32.256 15.36 4.085 2.059 7.68 4.608 11.259 6.667 10.245 6.144 20.475 11.765 30.72 18.432 3.579 2.043 6.651 4.608 10.245 7.157 10.229 7.173 19.968 14.347 29.184 22.027 2.77 2.533 5.675 4.926 8.693 7.157 5.637 4.608 11.275 9.216 16.389 13.824 0 0.523 0 0.523-0.507 1.029 101.883 93.696 165.888 227.328 165.888 375.81zM821.248 142.347c-15.894 19.984-34.913 37.274-56.325 51.195-138.747 93.189-366.071 93.189-505.847 0-21.304-14.061-40.303-31.329-56.325-51.195-77.829 78.843-125.951 186.869-125.951 305.661 0 240.122 195.071 435.193 435.193 435.193 240.119 0 435.208-195.071 435.208-435.193 0-118.792-48.139-226.818-125.952-305.661zM511.992 707.59c-50.921 0-99.757-20.228-135.764-56.235s-56.235-84.842-56.235-135.764c0-103.938 81.407-188.418 189.449-191.49h9.216c50.308 1.682 97.935 23.072 132.611 59.559 34.676 36.481 53.62 85.138 52.741 135.464-0.873 50.326-21.499 98.292-57.419 133.55s-84.264 54.981-134.599 54.916z" />
<glyph unicode="&#xe901;" glyph-name="photo" d="M910.216 730.352h-85.329c-17.667 0.001-35.087 4.084-50.887 11.927-15.794 7.842-29.539 19.228-40.135 33.256l-59.729 79.048c-10.595 14.028-24.341 25.414-40.135 33.256-15.8 7.842-33.22 11.926-50.884 11.926h-142.234c-17.663-0.001-35.083-4.084-50.881-11.926s-29.539-19.228-40.135-33.256l-59.733-79.048c-10.597-14.028-24.337-25.414-40.135-33.256s-33.218-11.926-50.881-11.927h-85.334c-30.177 0-59.118-11.899-80.457-33.081s-33.326-49.91-33.326-79.866v-508.24c0-14.83 2.943-29.515 8.662-43.219s14.1-26.154 24.666-36.641c10.566-10.487 23.11-18.805 36.914-24.48s28.6-8.59 43.542-8.59h796.432c14.944 0 29.738 2.915 43.544 8.59s26.347 13.993 36.912 24.48c10.565 10.487 18.95 22.938 24.666 36.641s8.662 28.389 8.662 43.219v508.24c0 29.956-11.987 58.684-33.328 79.866-21.335 21.182-50.278 33.081-80.456 33.081zM512 165.647c-45.005 0-88.999 13.246-126.42 38.069-37.42 24.817-66.586 60.097-83.808 101.371s-21.729 86.691-12.949 130.506c8.78 43.816 30.453 84.064 62.275 115.654s72.369 53.102 116.51 61.818c44.14 8.716 89.893 4.242 131.473-12.854 41.577-17.096 77.116-46.047 102.119-83.193s38.352-80.817 38.352-125.491c0-59.907-23.974-117.359-66.65-159.723-42.671-42.357-100.551-66.156-160.901-66.156z" />
<glyph unicode="&#xe902;" d="M34.133 892.103c0 18.007 7.153 35.277 19.887 48.011s30.003 19.887 48.011 19.887h814.845c18.016 0 35.287-7.153 48.019-19.885 12.739-12.733 19.9-30.003 19.9-48.012v-956.103l-237.67 169.772-237.669-169.772-237.651 169.772-237.671-169.772v956.103z" />
<glyph unicode="&#xe903;" d="M307.2 755.2h409.6c37.703 0 68.267-30.564 68.267-68.267s-30.564-68.267-68.267-68.267h-409.6c-37.703 0-68.267 30.564-68.267 68.267s30.564 68.267 68.267 68.267z" />
<glyph unicode="&#xe904;" d="M307.2 482.133h409.6c37.703 0 68.267-30.564 68.267-68.267s-30.564-68.267-68.267-68.267h-409.6c-37.703 0-68.267 30.564-68.267 68.267s30.564 68.267 68.267 68.267z" />
<glyph unicode="&#xe905;" glyph-name="cross" d="M1024 319.995c-0.007-11.312-4.506-22.157-12.506-30.155s-18.842-12.496-30.153-12.506h-298.673v-298.673c-0.010-11.312-4.508-22.153-12.506-30.153s-18.844-12.5-30.155-12.506h-256.010c-11.315 0-22.166 4.492-30.166 12.493s-12.496 18.855-12.496 30.167v298.673h-298.671c-5.602 0-11.15 1.104-16.326 3.247s-9.879 5.287-13.841 9.248c-3.962 3.962-7.104 8.664-9.248 13.84s-3.247 10.723-3.247 16.326v256.010c-0.005 5.604 1.095 11.153 3.237 16.332s5.284 9.883 9.247 13.846c3.963 3.962 8.668 7.105 13.846 9.247s10.728 3.242 16.332 3.237h298.671v298.671c-0.005 5.604 1.095 11.154 3.237 16.332s5.285 9.883 9.247 13.846c3.963 3.963 8.668 7.105 13.846 9.247s10.728 3.242 16.332 3.237h256.010c5.603 0 11.15-1.103 16.326-3.247s9.879-5.286 13.84-9.248c3.962-3.962 7.104-8.665 9.248-13.841s3.247-10.724 3.247-16.326v-298.671h298.673c11.312 0 22.166-4.495 30.167-12.496s12.493-18.852 12.493-30.166v-256.010z" />
<glyph unicode="&#xe906;" glyph-name="stat" d="M666.636 713.258c-39.069 22.584-82.649 36.25-127.62 40.019-11.501 0.964-17.245 1.44-21.441-2.343s-4.089-9.909-4.089-22.161v-266.039c0-7.198 0-10.721-1.7-13.784s-4.824-4.763-11.057-8.347l-230.401-132.999c-10.568-6.126-15.867-9.186-17.092-14.625-1.225-5.433 2.068-10.198 8.653-19.679 26.181-37.707 60.503-69.048 100.428-91.708s84.434-36.051 130.234-39.189c45.799-3.138 91.718 4.054 134.365 21.052 42.641 16.998 80.92 43.369 112.002 77.149 31.081 33.786 54.17 74.126 67.56 118.036s16.739 90.269 9.8 135.649c-6.939 45.379-23.992 88.618-49.893 126.52s-59.994 69.496-99.75 92.449zM983.859 646.729c-49.285 117.017-140.288 211.548-255.349 265.24s-245.967 62.717-367.307 25.32c-121.34-37.397-224.455-118.546-289.329-227.694s-86.876-238.507-61.737-362.965c25.139-124.458 95.627-235.134 197.779-310.549 102.152-75.409 228.681-110.17 355.023-97.539s243.486 71.758 328.683 165.9 132.379 216.588 132.379 343.558c0.084 68.265-13.565 135.849-40.141 198.729zM513.486 39.593c-225.132 0-408.392 183.212-408.392 408.407 0 225.193 183.199 408.392 408.392 408.392 225.191 0 408.409-183.199 408.409-408.392 0-225.196-183.218-408.407-408.409-408.407z" />
<glyph unicode="&#xe907;" glyph-name="list" d="M772.415 899.765c19.823 0 38.834-7.875 52.85-21.892s21.896-33.029 21.896-52.852v-558.437l13.33 13.336c14.041 13.914 33.021 21.705 52.784 21.662 19.769-0.043 38.713-7.916 52.694-21.891 13.975-13.981 21.847-32.925 21.89-52.688 0.042-19.769-7.746-38.749-21.661-52.784l-140.969-140.945c-14.017-14.017-33.027-21.89-52.85-21.89s-38.84 7.873-52.856 21.89l-140.952 140.945c-13.916 14.035-21.705 33.015-21.661 52.784 0.043 19.763 7.915 38.707 21.892 52.688 13.978 13.975 32.925 21.847 52.688 21.891 19.769 0.043 38.749-7.747 52.784-21.662l13.348-13.336v558.437c0 9.82 1.94 19.542 5.698 28.614s9.27 17.313 16.215 24.254c6.945 6.941 15.185 12.446 24.263 16.2 9.071 3.754 18.799 5.683 28.618 5.677zM423.594 202.138c19.207 0.012 37.681-7.367 51.59-20.613s22.185-31.34 23.112-50.525c0.927-19.179-5.567-37.984-18.134-52.513-12.567-14.523-30.244-23.654-49.362-25.492l-7.206-0.343h-348.805c-19.207-0.012-37.681 7.373-51.59 20.619-13.909 13.24-22.185 31.334-23.112 50.519s5.567 37.99 18.135 52.513c12.567 14.523 30.244 23.654 49.362 25.492l7.205 0.343h348.805zM523.259 550.96c19.207 0.011 37.681-7.372 51.59-20.617s22.186-31.337 23.112-50.522c0.927-19.184-5.567-37.989-18.134-52.514s-30.244-23.654-49.362-25.494l-7.205-0.344h-448.47c-19.207-0.011-37.681 7.372-51.59 20.617s-22.185 31.337-23.112 50.522c-0.927 19.184 5.567 37.989 18.135 52.514s30.244 23.654 49.362 25.494l7.205 0.344h448.47zM523.259 899.765c19.823 0 38.835-7.875 52.852-21.892s21.893-33.029 21.893-52.852c0-19.824-7.875-38.836-21.893-52.853s-33.029-21.893-52.852-21.893h-448.47c-19.823 0-38.835 7.875-52.852 21.893s-21.892 33.029-21.892 52.853c0 19.823 7.875 38.835 21.892 52.852s33.029 21.892 52.852 21.892h448.47z" />
<glyph unicode="&#xe908;" glyph-name="coins" d="M887.989 820.495c-73.915 31.703-171.080 49.152-273.595 49.152-102.509 0-199.676-17.449-273.588-49.152-118.271-50.688-136.012-119.3-136.012-155.673v-25.482c-129.085-34.806-204.794-100.3-204.794-179.296v-204.791c0-75.162 69.304-138.993 190.094-175.104 64.804-19.432 140.713-29.69 219.509-29.69s154.49 10.258 219.464 29.69c120.832 36.123 190.121 99.942 190.121 175.104v25.525c4.951 1.341 9.836 2.729 14.673 4.162 120.832 36.096 190.139 99.932 190.139 175.103v204.809c0 36.372-17.679 104.955-136.011 155.642zM204.794 532.389v-72.345c0-29.184 10.429-56.571 30.228-81.407-5.253 1.382-10.46 2.826-15.56 4.347-85.278 25.498-117.058 60.764-117.058 76.999 0 17.787 32.855 48.952 102.389 72.406zM716.8 255.253c0-16.239-31.78-51.507-117.072-77.005-55.588-16.619-121.343-25.401-190.125-25.401s-134.66 8.71-190.141 25.401c-85.278 25.498-117.058 60.765-117.058 77.005v65.492c25.067-13.824 54.435-25.851 87.689-35.789 64.881-19.433 140.713-29.703 219.509-29.703 34.223-0.030 68.418 1.97 102.405 5.987 33.982-4.018 68.171-6.018 102.386-5.987 34.226-0.036 68.421 1.964 102.406 5.969v-5.969zM921.594 460.044c0-16.251-31.78-51.517-117.103-76.999-55.386-16.62-121.127-25.39-190.097-25.39-68.963 0-134.55 8.77-190.138 25.39-85.278 25.498-117.058 60.764-117.058 76.999v65.541c25.083-13.824 54.467-25.851 87.736-35.804 64.972-19.492 140.866-29.737 219.459-29.737 78.601 0 154.69 10.245 219.467 29.691 33.268 9.938 62.651 22.026 87.733 35.85v-65.541z" />
<glyph unicode="&#xe909;" glyph-name="wallet" d="M0 740.571c0 58.196 23.118 114.009 64.269 155.159s96.963 64.269 155.159 64.269h731.428c40.394 0 73.144-32.747 73.144-73.143s-32.75-73.143-73.144-73.143h-658.285c-40.396 0-73.143-32.748-73.143-73.143s32.747-73.143 73.143-73.143h550.723c99.804 0 180.706-80.905 180.706-180.706v-370.017c0-99.804-80.902-180.706-180.706-180.706h-623.865c-58.196 0-114.009 23.118-155.159 64.271-41.151 41.147-64.269 96.961-64.269 155.16v585.14zM804.569 228.569c14.469 0 28.612 4.295 40.641 12.33s21.402 19.462 26.937 32.822c5.536 13.366 6.981 28.076 4.162 42.261-2.825 14.191-9.788 27.22-20.016 37.454-10.228 10.227-23.263 17.193-37.454 20.015-14.185 2.823-28.895 1.374-42.255-4.162-13.366-5.536-24.793-14.913-32.828-26.942-8.035-12.023-12.324-26.166-12.324-40.635 0-19.396 7.704-38.002 21.42-51.718s32.322-21.426 51.718-21.426z" />
<glyph unicode="&#xe90a;" glyph-name="tv" d="M54.368 79.618l115.046 308.409c12.354 33.117 49.215 49.949 82.332 37.595s49.949-49.215 37.595-82.332l-115.046-308.409c-12.354-33.117-49.215-49.949-82.332-37.595s-49.949 49.215-37.595 82.332zM828.4 388.022l115.062-308.403c12.355-33.116-4.475-69.979-37.591-82.334s-69.979 4.475-82.334 37.591l-115.062 308.403c-12.355 33.116 4.475 69.979 37.591 82.334s69.979-4.475 82.334-37.591zM967.117 960h-910.234c-31.416 0-56.883-23.876-56.883-53.328v-533.344c0-29.452 25.467-53.328 56.883-53.328h910.234c31.418 0 56.883 23.876 56.883 53.328v533.344c0 29.452-25.466 53.328-56.883 53.328z" />
<glyph unicode="&#xe90b;" d="M111.406 71.17l108.279 290.267c11.627 31.169 46.32 47.011 77.489 35.384s47.011-46.32 35.384-77.489l-108.279-290.267c-11.627-31.169-46.32-47.011-77.489-35.384s-47.011 46.32-35.384 77.489z" />
<glyph unicode="&#xe90c;" d="M839.906 361.432l108.293-290.262c11.629-31.168-4.212-65.862-35.38-77.491s-65.862 4.212-77.491 35.38l-108.293 290.262c-11.629 31.168 4.212 65.862 35.38 77.491s65.862-4.212 77.491-35.38z" />
<glyph unicode="&#xe90d;" d="M940.345 960h-856.69c-29.568 0-53.537-26.966-53.537-60.229v-602.365c0-33.262 23.969-60.229 53.537-60.229h856.69c29.57 0 53.537 26.967 53.537 60.229v602.365c0 33.264-23.968 60.229-53.537 60.229z" />
<glyph unicode="&#xe90e;" d="M515.223 618.796c21.42-0.028 42.367 6.42 60.191 18.531s31.723 29.337 39.94 49.501c8.216 20.164 10.38 42.36 6.219 63.778s-14.463 41.097-29.6 56.546c-15.137 15.45-34.429 25.975-55.436 30.245s-42.784 2.093-62.577-6.257c-19.793-8.349-36.711-22.495-48.614-40.648s-18.257-39.496-18.257-61.331c0-29.247 11.388-57.297 31.663-77.991s47.779-32.339 76.471-32.376zM703.934 517.127c-40.008 40.353-136.393 49.051-188.711 49.051s-148.701-8.698-188.009-49.051c-8.208-8.636-13.161-19.947-13.989-31.941 0-37.217 25.18-67.304 55.955-67.304h291.668c31.196 0 55.953 30.087 55.953 67.304-0.566 11.837-5.108 23.115-12.866 31.941z" />
<glyph unicode="&#xe90f;" glyph-name="circles" d="M614.453 960c226.183 0.108 409.67-183.199 409.78-409.441 0.034-78.899-22.712-156.13-65.509-222.411-42.803-66.284-103.834-118.794-175.759-151.221-93.239-206.199-335.951-297.643-542.054-204.418-206.103 93.232-297.641 335.925-204.413 542.012 41.030 90.728 113.695 163.409 204.413 204.459 32.476 71.854 84.992 132.813 151.249 175.564s143.441 65.478 222.293 65.456zM614.453 857.586c-43.388 0.054-86.292-9.107-125.874-26.877s-74.939-43.741-103.732-76.198c225.812 13.718 419.997-158.222 433.712-384.033 1.004-16.549 1.004-33.144 0-49.694 126.805 112.737 138.254 306.935 25.47 433.727-28.822 32.413-64.184 58.356-103.752 76.121s-82.45 26.952-125.824 26.953z" />
<glyph unicode="&#xe910;" glyph-name="voice" d="M1009.594 669.729c-11.437 70.666-29.958 139.332-66.95 201.48-46.547 78.305-101.299 101.34-190.003 82.664-75.501-15.997-136.29-58.149-194.558-105.579-36.633-29.834-73.266-59.988-111.418-87.622-31.964-23.479-71.047-35.217-110.658-33.233-35.992 1.359-71.985 0.28-107.978 0.28-39.992 0-79.984-1.28-119.976 0.4-32.873 1.359-54.989-12.998-69.626-40.512-7.305-13.43-13.266-27.549-17.796-42.152-19.996-65.907-23.995-133.453-18.196-201.68 3.999-47.27 11.358-93.821 32.993-136.894 15.477-30.835 38.432-46.432 74.745-45.587 73.946 1.715 147.971-0.442 221.876 0.877 44.471 0.838 84.583-10.56 119.976-36.672s67.946-53.35 101.54-80.704c56.468-46.31 114.936-88.659 187.48-106.701 98.426-24.474 158.048 0 206.278 89.024 16.73 31.002 30.131 63.686 39.994 97.504 42.63 146.408 46.509 295.258 22.278 445.108zM930.445 462.81c-2.918-82.663-12.314-164.449-42.95-242.349-11.712-28.838-27.078-56.051-45.709-80.986-17.28-23.514-35.155-22.278-54.867-0.403-31.994 35.558-48.39 79.386-59.712 124.698-41.069 163.968-41.312 327.935 9.197 490.263 9.958 30.264 24.096 58.989 41.997 85.343 24.435 36.873 46.669 35.993 72.864 0.44 29.792-40.392 47.27-86.863 55.987-135.373 7.68-42.951 13.517-86.223 19.117-129.534 3.398-26.435 4.442-101.46 4.077-112.098zM440.945 98.605c-22.396 2.157-33.354 12.435-39.192 32.589-5.839 20.16-13.397 38.995-19.116 58.79-5.319 18.24-17.357 25.837-35.393 25.837h-75.985c-24.635 0-49.27 0.237-73.905 0-24.635-0.243-35.033-12-28.515-35.475 16.757-60.186 33.594-120.378 51.99-180.16 11.758-38.515 46.871-63.072 87.542-63.987 25.315-0.442 50.63 0 75.985 0 15.316 0 30.634 0 45.951 0 45.671 0.397 79.304 30.432 81.944 73.024 2.84 48.986-24.275 84.781-71.306 89.382zM782.598 628.417c-18.88 3.759-29.638-2.999-31.552-22.875-3.52-36.433-5.44-73.026-8-110.898 2.675-36.713 4.755-74.625 8.435-112.378 1.798-18.276 13.357-25.235 30.874-21.636 56.39 11.517 102.259 72.186 102.022 134.813-0.48 61.748-46.432 121.936-101.779 132.973z" />
<glyph unicode="&#xe911;" glyph-name="profile" d="M500.053 423.933c53.027-0.069 104.883 15.593 149.006 45.003 44.121 29.41 78.534 71.247 98.871 120.218 20.343 48.97 25.696 102.874 15.394 154.89s-35.799 99.808-73.271 137.327c-37.474 37.52-85.233 63.082-137.236 73.452s-105.913 5.083-154.91-15.194c-48.997-20.277-90.879-54.631-120.346-98.717s-45.196-95.921-45.196-148.948c0-71.027 28.191-139.15 78.382-189.406s118.278-78.536 189.305-78.627zM967.209 177.022c-99.041 98.004-337.641 119.127-467.156 119.127s-368.114-21.123-465.423-119.127c-20.318-20.972-32.582-48.442-34.63-77.571 0-90.385 62.333-163.451 138.519-163.451h722.031c77.223 0 138.52 73.066 138.52 163.451-1.399 28.747-12.65 56.136-31.86 77.571z" />
<glyph unicode="&#xe912;" glyph-name="bag" d="M409.603 960h204.793c40.737 0 79.807-16.183 108.609-44.988 28.809-28.805 44.988-67.874 44.988-108.611v-51.272h52.838c22.46 0 41.841 0.001 57.876-1.090 16.882-1.152 33.778-3.701 50.476-10.613 18.63-7.705 35.553-19.003 49.814-33.251s25.573-31.164 33.3-49.786c6.909-16.681 9.462-33.577 10.609-50.472 1.092-16.036 1.092-35.42 1.092-57.876v-363.399c0-45.391 0-84.494-4.212-115.814-4.512-33.56-14.677-65.741-40.776-91.839s-58.279-36.263-91.839-40.776c-31.334-4.212-70.424-4.212-115.814-4.212h-518.734c-45.389 0-84.495 0-115.814 4.212-33.561 4.499-65.725 14.677-91.821 40.776s-36.265 58.279-40.781 91.839c-4.209 31.334-4.209 70.424-4.209 115.814v363.399c0 22.426 0 41.841 1.091 57.876 1.152 16.88 3.686 33.776 10.598 50.472 15.593 37.631 45.494 67.527 83.128 83.113 16.681 6.912 33.577 9.462 50.472 10.614 16.036 1.090 35.42 1.090 57.876 1.090h52.838v51.195c0 40.737 16.183 79.806 44.988 108.611s67.874 44.988 108.612 44.988zM665.592 755.206v51.195c0 13.578-5.394 26.599-14.995 36.2s-22.622 14.994-36.2 14.994h-204.793c-13.58 0-26.603-5.393-36.206-14.993s-15-22.622-15.004-36.201v-51.195h307.199z" />
<glyph unicode="&#xe913;" glyph-name="gears" d="M911.746 403.865l-18.239 10.543c-10.547 6.088-19.299 14.844-25.389 25.387-6.084 10.544-9.288 22.505-9.288 34.679s3.205 24.135 9.288 34.679c6.090 10.544 14.842 19.3 25.389 25.387l18.239 10.543c23.895 13.797 41.333 36.521 48.471 63.174 7.144 26.652 3.403 55.050-10.391 78.946l-34.683 60.067c-13.812 23.875-36.539 41.295-63.181 48.434-26.648 7.139-55.037 3.415-78.938-10.355l-18.239-10.515c-10.547-6.087-22.504-9.292-34.683-9.292-12.174 0-24.13 3.205-34.677 9.292-10.541 6.087-19.299 14.843-25.388 25.387s-9.292 22.505-9.293 34.68v21.058c-0.033 27.584-11.005 54.028-30.509 73.532s-45.949 30.476-73.532 30.509h-69.36c-27.584-0.033-54.027-11.005-73.532-30.509s-30.477-45.948-30.51-73.532v-21.085c0-12.175-3.205-24.136-9.293-34.68s-14.844-19.299-25.388-25.387c-10.544-6.087-22.505-9.292-34.68-9.292s-24.136 3.205-34.68 9.292l-18.242 10.543c-23.911 13.761-52.302 17.48-78.951 10.342s-49.38-24.551-63.211-48.421l-34.68-60.067c-13.796-23.896-17.535-52.294-10.394-78.946s24.577-49.377 48.473-63.174l18.284-10.543c10.544-6.087 19.299-14.844 25.386-25.387s9.292-22.504 9.292-34.679c0-12.175-3.205-24.135-9.292-34.679s-14.842-19.299-25.386-25.387l-18.242-10.543c-23.895-13.797-41.331-36.521-48.473-63.174s-3.402-55.049 10.394-78.944l34.68-60.067c13.818-23.877 36.542-41.291 63.186-48.429s55.031-3.415 78.934 10.348l18.242 10.517c10.544 6.084 22.505 9.288 34.68 9.288s24.136-3.205 34.68-9.288c10.544-6.090 19.3-14.842 25.388-25.389 6.088-10.541 9.293-22.504 9.293-34.677v-21.058c0.033-27.582 11.005-54.031 30.51-73.535s45.948-30.473 73.532-30.509h69.36c27.584 0.036 54.027 11.005 73.532 30.509s30.476 45.954 30.509 73.535v21.082c0.001 12.18 3.205 24.136 9.293 34.683 6.089 10.541 14.847 19.299 25.388 25.383 10.547 6.090 22.504 9.294 34.677 9.294 12.18 0 24.136-3.205 34.683-9.294l18.239-10.541c23.907-13.752 52.29-17.462 78.932-10.324 26.636 7.138 49.363 24.54 63.187 48.405l34.683 60.067c13.794 23.895 17.534 52.29 10.391 78.944-7.138 26.653-24.576 49.377-48.471 63.174zM512.021 301.074c-34.296 0-67.821 10.168-96.337 29.22s-50.741 46.137-63.866 77.822c-13.124 31.685-16.558 66.55-9.867 100.187s23.206 64.534 47.456 88.785c24.251 24.251 55.148 40.765 88.784 47.456s68.502 3.257 100.187-9.868c31.685-13.125 58.767-35.35 77.82-63.866 19.057-28.515 29.224-62.041 29.224-96.337-0.054-45.973-18.336-90.049-50.846-122.556-32.508-32.509-76.584-50.796-122.557-50.845z" />
<glyph unicode="&#xe914;" glyph-name="time" d="M786.285 96.915v131.654c0.051 17.043-3.891 33.862-11.514 49.101-7.621 15.245-18.708 28.486-32.371 38.675l-135.315 102.397c-10.971 7.314-14.628 18.285-14.628 29.257s3.658 21.943 14.628 29.257l135.315 102.4c13.663 10.185 24.75 23.429 32.371 38.672 7.622 15.242 11.565 32.058 11.514 49.1v131.657c43.885 25.6 73.146 73.143 73.146 124.343 0 21.943-14.63 36.571-36.576 36.571h-658.283c-21.943 0-36.571-14.629-36.571-36.571 0-54.857 29.257-98.743 73.143-124.343v-131.657c-0.051-17.041 3.893-33.857 11.514-49.1s18.708-28.487 32.371-38.672l135.315-102.4c10.972-7.314 14.628-18.285 14.628-29.257s-3.657-21.943-14.628-29.257l-135.315-102.397c-13.663-10.189-24.75-23.43-32.371-38.675-7.621-15.238-11.565-32.058-11.514-49.101v-131.654c-43.886-25.6-73.143-73.146-73.143-124.346 0-21.939 14.629-36.57 36.571-36.57h658.283c21.946 0 36.576 14.63 36.576 36.57 0 54.861-29.261 98.746-73.146 124.346zM362.057 638.172c-14.628 7.314-18.285 25.6-14.628 40.228 7.315 14.628 21.943 25.6 36.572 25.6h219.428c14.628 0 29.257-10.972 36.572-25.6 3.657-14.628 0-32.915-14.628-40.228l-109.715-73.143c-7.314-3.657-14.628-7.314-21.942-7.314s-14.629 3.657-21.943 7.314l-109.715 73.143zM468.115 290.746c14.628 14.624 36.571 14.624 51.2 0l171.885-171.891h-394.972l171.886 171.891z" />
<glyph unicode="&#xe915;" glyph-name="bag-checked" horiz-adv-x="967" d="M293.587 755.2h379.938c9.159 0 17.943 3.596 24.422 9.998s10.115 15.083 10.115 24.136v68.267c-0.080 27.134-11.019 53.134-30.436 72.321s-45.727 30.001-73.182 30.079h-241.778c-27.457-0.079-53.767-10.893-73.182-30.079s-30.358-45.187-30.437-72.321v-68.267c0-9.053 3.639-17.735 10.117-24.136s15.263-9.998 24.423-9.998zM863.494 874.667h-34.543c-2.304 0.137-4.608-0.211-6.77-1.020-2.156-0.81-4.113-2.062-5.746-3.674s-2.901-3.55-3.721-5.683c-0.819-2.133-1.172-4.413-1.030-6.69v-68.267c-0.108-36.178-14.7-70.844-40.59-96.426-25.884-25.582-60.962-40.001-97.57-40.108h-379.938c-36.609 0.107-71.687 14.526-97.573 40.108s-40.478 60.248-40.586 96.426v68.267c0.139 2.277-0.213 4.557-1.032 6.69s-2.086 4.069-3.718 5.683c-1.632 1.613-3.592 2.865-5.75 3.674s-4.465 1.157-6.769 1.020h-34.54c-27.457-0.079-53.767-10.893-73.182-30.079s-30.358-45.187-30.437-72.321v-733.867c0.080-27.136 11.022-53.134 30.437-72.323 19.415-19.183 45.725-29.998 73.182-30.077h759.875c27.455 0.080 53.766 10.894 73.182 30.077 19.41 19.189 30.356 45.187 30.436 72.323v733.867c-0.080 27.134-11.025 53.134-30.436 72.321-19.416 19.187-45.727 30-73.182 30.079zM773.689 465.067l-331.581-327.68c-8.635-8.533-18.997-13.653-31.086-13.653-12.322 0.142-24.099 5.040-32.813 13.653l-184.787 182.613c-8.635 8.533-8.635 18.773 0 27.307l36.267 35.84c8.635 8.533 18.997 8.533 27.632 0l151.975-150.187 298.767 295.253c8.636 8.533 19.001 8.533 27.631 0l36.267-35.84c8.636-8.533 8.636-20.48 1.729-27.307z" />
<glyph unicode="&#xe916;" glyph-name="sticker2" d="M1005.261 493.242l-448.005 448.006c-12 12.003-28.276 18.749-45.249 18.752h-448.006c-16.974 0-33.253-6.743-45.256-18.745s-18.745-28.281-18.745-45.256v-448.006c0.004-16.973 6.749-33.249 18.752-45.249l448.006-448.005c12.002-11.998 28.278-18.739 45.249-18.739s33.246 6.741 45.249 18.739l448.005 448.005c11.998 12.002 18.739 28.278 18.739 45.249s-6.741 33.246-18.739 45.249zM320.005 511.93c-25.317 0-50.064 7.507-71.114 21.572s-37.456 34.056-47.144 57.445c-9.688 23.389-12.223 49.126-7.284 73.956s17.13 47.638 35.031 65.539c17.902 17.901 40.709 30.093 65.539 35.032s50.567 2.404 73.956-7.284c23.389-9.688 43.381-26.095 57.446-47.144s21.572-45.798 21.572-71.114c0-33.948-13.486-66.506-37.491-90.511s-56.563-37.491-90.511-37.491z" />
<glyph unicode="&#xe917;" glyph-name="notif" d="M832 448v192c0 176.73-143.27 320-320 320s-320-143.27-320-320v-192l-128-128v-128h896v128l-128 128zM512-64c39.712 0 78.448 12.307 110.876 35.232s56.956 55.334 70.205 92.768h-362.15c13.245-37.434 37.77-69.85 70.196-92.768 32.427-22.925 71.162-35.232 110.872-35.232z" />
<glyph unicode="&#xe918;" glyph-name="tg" d="M971.565 863.964c-35.469 0-90.035-19.195-350.789-126.306-91.984-37.623-275.432-115.3-550.346-233.033-44.433-17.66-67.819-34.552-70.157-51.443-4.287-31.865 42.484-41.846 101.728-61.042 47.4-16.75 96.557-28.211 146.551-34.168 37.223 2.214 72.863 15.613 102.118 38.391 256.464 170.967 388.856 257.219 397.17 258.755 5.843 0 14.029 3.071 19.488 0 1.971-2.237 3.418-4.879 4.23-7.735 0.806-2.855 0.96-5.852 0.448-8.773-4.678-19.58-245.943-235.336-259.585-249.541-53.008-54.131-113.421-87.531-20.657-147.805 80.681-52.214 127.452-85.61 210.469-138.973 53.011-34.17 94.323-74.867 149.28-69.875 24.947 2.304 51.059 25.722 64.314 95.213 31.571 160.472 92.762 517.123 107.187 663.777 1.312 12.122 1.312 24.349 0 36.471-1.056 9.865-5.946 18.945-13.645 25.338-11.13 7.434-24.365 11.198-37.805 10.749z" />
<glyph unicode="&#xe919;" glyph-name="ws" d="M232.421 18.432l18.641-11.182c79.077-46.606 169.183-71.202 260.971-71.25 113.514 0.007 223.807 37.738 313.543 107.261s153.818 166.892 182.183 276.807c28.365 109.913 19.395 226.137-25.491 330.399-44.892 104.262-123.153 190.65-222.495 245.585-99.333 54.934-214.11 75.299-326.282 57.893s-215.38-71.596-293.398-154.051c-78.018-82.455-126.422-188.499-137.604-301.462s15.494-226.437 75.833-322.591l12.013-19.463-51.365-190.553 193.45 52.606zM252.718 711.455c5.244 5.829 11.622 10.526 18.746 13.803s14.84 5.064 22.678 5.252h29.411c9.527 0 21.955 3.314 34.382-26.511s43.909-104.802 47.637-112.673c2.178-4.154 3.315-8.774 3.315-13.463s-1.137-9.31-3.315-13.463c-3.895-9.23-9.053-17.874-15.327-25.683-7.87-9.114-16.155-19.884-23.198-26.926s-15.741-16.155-6.628-31.483c22.977-39.658 51.895-75.561 85.748-106.459 36.469-32.72 78.576-58.545 124.272-76.22 15.327-7.871 24.44-6.628 33.553 3.728s38.524 44.738 48.467 60.479c9.942 15.741 20.711 12.842 34.794 7.456s89.894-41.424 105.219-50.123c15.326-8.699 25.682-11.599 29.409-17.812 4.082-24.77 1.065-50.192-8.697-73.321-11.38-18.657-26.481-34.761-44.373-47.309s-38.182-21.258-59.604-25.6c-32.317-5.68-65.519-3.693-96.93 5.803-29.803 9.428-59.113 20.35-87.818 32.727-154.511 66.69-255.172 222.030-263.042 231.971-35.787 46.021-57.509 101.404-62.55 159.483-0.115 23.618 4.603 47.011 13.864 68.739s22.869 41.331 39.987 57.603z" />
<glyph unicode="&#xe91a;" glyph-name="close" d="M48.272 139.374l772.349 772.349c26.66 26.66 69.884 26.66 96.544 0s26.66-69.884 0-96.544l-772.349-772.349c-26.66-26.66-69.884-26.66-96.544 0s-26.66 69.884 0 96.544zM917.162 139.374l-772.349 772.349c-26.66 26.66-69.884 26.66-96.544 0s-26.66-69.884 0-96.544l772.349-772.349c26.66-26.66 69.884-26.66 96.544 0s26.66 69.884 0 96.544z" />
<glyph unicode="&#xe91b;" glyph-name="burger" d="M56.889 846.222h910.222c31.419 0 56.889-25.47 56.889-56.889s-25.47-56.889-56.889-56.889h-910.222c-31.419 0-56.889 25.47-56.889 56.889s25.47 56.889 56.889 56.889zM56.889 504.889h910.222c31.419 0 56.889-25.47 56.889-56.889s-25.47-56.889-56.889-56.889h-910.222c-31.419 0-56.889 25.47-56.889 56.889s25.47 56.889 56.889 56.889zM56.889 163.556h910.222c31.419 0 56.889-25.47 56.889-56.889s-25.47-56.889-56.889-56.889h-910.222c-31.419 0-56.889 25.47-56.889 56.889s25.47 56.889 56.889 56.889z" />
<glyph unicode="&#xe91c;" glyph-name="exm" d="M437.292 286.973c19.273-19.272 42.828-28.912 70.667-28.912s51.395 9.639 70.668 28.912c19.025 18.672 29.979 44.055 30.515 70.707l99.576 401.517c0 55.664-19.808 103.311-59.425 142.941s-86.728 58.903-141.335 57.819c-54.607-1.071-101.717-20.344-141.334-57.819s-59.425-85.122-59.425-142.941c0-33.192 8.566-82.98 25.697-149.364s33.727-125.273 49.788-176.668l25.697-75.485c0-27.879 9.637-51.448 28.91-70.707zM578.626 127.973c-21.415 17.128-44.97 26.767-70.668 28.911-25.697 2.137-49.252-7.496-70.667-28.911s-31.050-44.967-28.91-70.67c-0.172-13.353 2.292-26.61 7.253-39.014s12.32-23.702 21.656-33.26c19.273-20.343 42.828-29.962 70.667-28.863 27.838 1.092 51.395 10.732 70.668 28.904 19.272 18.22 29.444 42.312 30.515 72.274 1.070 29.969-9.101 53.507-30.515 70.629z" />
<glyph unicode="&#xe91d;" glyph-name="stairs" d="M564.706 928c-29.954 0-58.681-11.899-79.862-33.080s-33.080-49.908-33.080-79.862v-169.411h-112.941c-29.954 0-58.681-11.9-79.862-33.080s-33.080-49.907-33.080-79.861v-169.412h-112.941c-29.954 0-58.681-11.899-79.862-33.080s-33.080-49.907-33.080-79.859v-169.414c0.089-29.926 12.017-58.598 33.178-79.763 21.161-21.158 49.837-33.088 79.763-33.178h790.585c29.958 0 58.682 11.898 79.866 33.082 21.178 21.178 33.082 49.907 33.082 79.859v734.118c0 29.954-11.904 58.681-33.082 79.862-21.184 21.181-49.907 33.080-79.866 33.080h-338.82zM564.706 815.059h282.353v-169.411h-282.353v169.411zM338.824 532.706h282.353v-169.412h-282.353v169.412zM112.941 250.355h282.353v-169.414h-282.353v169.414z" />
<glyph unicode="&#xe91e;" glyph-name="tel-down" d="M745.171 957.289c-71.921-11.144-177.513-60.838-293.768-138.12-131.192-87.281-206.667-161.009-297.201-290.214-63.368-90.473-122.82-201.487-139.746-261-1.559-5.684-3.325-10.508-5.436-15.143l0.255 0.626c-2.229-4.337-4.638-18.131-7.59-44.393-3.976-34.816 6.204-69.271 30.479-103.063 11.083-15.48 117.338-124.024 136.553-139.505 28.792-23.251 62.825-33.129 98.906-28.732 24.696 2.952 41.743 9.397 61.018 23.070 9.879 6.987 158.118 156.13 172.996 174.020 25.781 30.961 35.117 74.812 24.757 116.314-6.807 27.287-16.685 42.225-50.778 76.86l-25.48 25.961 4.759 8.192c13.071 22.588 25.6 38.912 49.875 65.114 29.877 32.286 62.705 60.115 90.895 77.101l14.336 8.553 23.070-23.070c25.66-25.66 38.129-35.659 54.453-43.61 17.89-8.734 34.033-12.107 57.404-12.107 31.744 0 55.356 7.409 78.908 24.696 5.481 4.096 45.96 43.008 89.931 86.558 92.762 91.919 96.196 96.196 105.291 130.831 2.59 9.818 3.494 18.552 3.494 33.732 0 30.057-5.843 49.393-23.13 76.378-3.313 5.24-33.009 35.659-71.319 73.065-71.439 69.933-83.245 79.45-111.435 90.413-8.011 3.132-14.517 6.686-14.517 7.951 0 3.012-36.322 2.771-56.983-0.482zM781.854 867.599c14.878-5 30.479-18.372 87.221-74.812 63.006-62.584 64.392-64.392 64.392-82.824 0.060-19.095-0.422-19.697-84.631-103.484-42.104-41.864-79.27-77.523-82.522-79.149-5.158-2.103-11.131-3.485-17.377-3.848l-0.152-0.007c-20.42-1.506-22.167-0.301-69.873 47.044l-42.104 41.803-14.577-2.891c-53.308-10.541-104.689-43.008-167.454-105.894-60.235-60.235-91.256-109.929-100.713-161.19l-2.891-15.902 40.96-41.201c26.504-26.624 42.406-43.912 44.936-48.851 2.62-5.382 4.151-11.709 4.151-18.393 0-7.523-1.94-14.594-5.347-20.738l0.112 0.219c-5.602-9.758-150.408-158.118-161.551-165.466-4.819-3.253-9.517-4.518-18.432-5.18-21.263-1.506-21.624-1.265-78.306 54.935-61.259 60.657-73.547 74.391-81.559 91.136-5.963 12.408-6.144 13.192-5.18 27.467 4.698 69.813 94.931 232.99 200.704 362.857 23.612 28.913 77.101 82.462 105.111 105.231 145.288 117.64 335.209 215.883 385.084 199.138z" />
<glyph unicode="&#xe91f;" glyph-name="profile2" horiz-adv-x="1088" d="M499.136 958.272c-55.616-6.4-107.776-31.296-146.24-69.824-33.096-33.17-56.913-75.611-67.22-123.090l-0.3-1.646c-4.608-21.312-4.672-72.576-0.128-93.632 7.488-34.88 19.52-63.872 36.992-89.728 44.476-65.446 118.575-107.873 202.583-107.873 39.689 0 77.167 9.47 110.296 26.273l-1.391-0.64c46.175 24.351 82.99 61.125 106.73 105.895l0.662 1.369c16.463 32.154 26.111 70.145 26.111 110.39 0 39.074-9.095 76.023-25.283 108.846l0.644-1.444c-34.394 68.585-98.247 118.036-174.5 132.059l-1.5 0.229c-13.753 2.309-29.598 3.629-45.752 3.629-7.638 0-15.208-0.295-22.697-0.874l0.993 0.062zM563.008 859.584c16-4.352 41.92-17.728 54.976-28.416 22.784-18.56 41.152-46.528 49.472-75.2 5.376-18.624 6.592-48.704 2.688-68.032-18.624-91.968-114.752-144.768-200.512-110.080-44.992 18.176-76.544 54.336-89.92 102.912-4.736 17.088-4.352 54.016 0.704 72.768 11.579 41.717 39.751 75.367 76.777 94.010l0.855 0.39c26.56 13.184 39.552 16.064 69.632 15.232 15.040-0.384 28.672-1.792 35.328-3.584zM477.824 376c-119.488-4.032-235.776-24.768-315.136-56.32-106.048-42.176-161.728-105.088-161.28-182.208 0.512-96.32 63.232-180.928 146.368-197.44 13.056-2.56 52.672-2.816 387.136-2.368l372.672 0.512 12.672 4.288c30.72 10.368 50.176 21.952 71.296 42.624 30.784 30.016 49.024 63.488 58.816 108.16 5.44 24.576 5.376 63.936-0.192 84.288-12.8 47.104-41.024 80.768-94.528 112.768-15.251 9.575-32.872 18.458-51.325 25.681l-2.179 0.751c-64.448 26.432-152.384 45.696-249.856 54.848-25.024 2.304-126.336 6.912-132.8 6.016-0.96-0.128-19.712-0.832-41.664-1.6zM616.512 279.168c154.112-11.392 273.216-46.144 323.392-94.336 16.128-15.488 23.040-38.080 19.392-63.296-5.568-37.632-26.24-69.376-54.208-83.136l-11.968-5.888h-730.816l-10.88 5.248c-14.592 7.104-32.512 25.408-41.344 42.24-13.568 25.856-17.728 57.472-10.24 77.504 12.928 34.56 66.304 67.52 145.664 89.984 57.344 16.192 141.12 29.376 210.56 33.088 18.45 0.585 40.145 0.918 61.919 0.918 34.656 0 69.114-0.844 103.356-2.514l-4.827 0.187z" />
<glyph unicode="&#xe920;" glyph-name="mail" horiz-adv-x="1161" d="M146.978 957.884c-38.3-4.522-71.901-21.809-97.051-47.421l-0.024-0.024c-28.877-28.604-43.691-60.416-48.060-102.741-1.434-14.473-1.911-126.089-1.434-367.002l0.683-346.249 4.233-15.906c17.271-64.512 65.399-110.455 129.161-123.29 13.926-2.799 56.115-3.004 436.087-2.526 460.595 0.614 422.707-0.341 452.198 11.605 19.046 7.782 32.563 16.725 50.108 33.178 27.17 25.532 43.145 54.477 49.835 90.249 2.731 14.746 3.004 53.794 2.526 375.194l-0.478 358.741-5.461 17.408c-18.637 59.733-60.962 99.738-123.153 116.395-11.81 3.209-39.39 3.413-423.595 3.755-226.099 0.137-417.587-0.478-425.574-1.365zM983.518 853.504c13.722-5.188 28.467-19.388 35.43-34.202l5.188-11.127 0.546-344.337c0.41-249.173 0-347.887-1.638-357.376-4.149-23.111-20.096-41.709-41.263-49.553l-0.448-0.145c-10.581-3.959-11.537-3.959-421.001-3.482l-410.419 0.546-10.923 5.325c-14.592 7.532-25.91 19.69-32.189 34.501l-0.17 0.451-4.096 11.127v702.942l5.53 11.605c7.987 16.589 21.914 29.559 37.956 35.294 4.096 1.502 128 2.185 416.29 2.253l410.487 0.137 10.718-3.959zM206.234 668.979c-33.314-11.878-43.486-57.003-18.432-82.193 3.618-3.686 90.795-62.601 193.741-131.004l187.187-124.382 188.075 125.406c103.424 68.949 190.805 128.478 194.15 132.301 7.51 8.34 12.104 19.435 12.104 31.603 0 1.854-0.107 3.683-0.314 5.481l0.021-0.219c-0.237 12.883-6.040 24.365-15.099 32.174l-0.056 0.048c-9.281 8.438-21.667 13.605-35.261 13.605-5.367 0-10.547-0.806-15.424-2.302l0.372 0.098c-3.618-1.229-79.189-50.449-167.868-109.431l-161.314-107.179-159.812 106.428c-87.859 58.573-163.021 107.793-166.98 109.431-5.307 1.751-11.417 2.761-17.762 2.761-6.185 0-12.146-0.96-17.742-2.738l0.414 0.114z" />
<glyph unicode="&#xe921;" glyph-name="bag2" horiz-adv-x="967" d="M452.096 958.407c-63.488-5.803-122.88-52.053-142.677-111.218-12.060-36.011 21.845-68.324 55.865-53.305 11.605 5.177 16.213 10.411 25.259 28.843 5.916 12.117 10.638 19.172 17.351 25.998 15.528 16.056 37.264 26.024 61.329 26.024 16.313 0 31.557-4.581 44.515-12.526l-0.372 0.212c15.986-9.557 23.95-18.716 34.19-39.14 5.291-10.524 11.264-20.082 14.108-22.471 22.926-19.342 58.311-10.411 67.698 17.124 4.892 14.222 2.788 25.429-9.045 49.38-13.995 28.16-37.319 52.452-67.47 70.144-27.591 16.213-65.593 24.121-100.75 20.935zM279.666 737.508c-80.498-1.934-123.051-8.363-161.223-24.235-37.205-15.474-70.315-46.933-89.031-84.48-10.695-21.447-19.627-57.060-23.836-94.948-4.267-38.002-6.428-168.334-4.267-256.853 1.934-79.986 3.812-106.212 10.012-138.012 16.896-87.268 69.234-139.378 157.127-156.444 22.471-4.38 53.476-7.339 96.654-9.102 54.158-2.276 418.361-1.024 447.317 1.536 89.6 7.908 136.818 27.25 173.511 70.997 28.9 34.475 42.325 75.776 49.038 150.812 2.674 29.468 3.868 232.619 1.65 280.917-3.356 73.956-10.126 112.697-25.998 148.082-15.588 34.645-45.454 65.195-81.351 83.172-38.059 19.115-81.351 26.112-177.266 28.615-65.308 1.707-301.056 1.65-372.338-0.057zM696.604 652.060c93.98-6.485 126.35-24.462 143.644-79.701 9.899-31.573 12.402-65.195 13.483-182.158 2.048-208.1-5.063-263.111-38.116-295.765-21.675-21.39-51.484-30.72-114.46-35.726-37.66-3.015-426.041-3.072-463.417-0.057-79.588 6.372-112.697 21.163-130.901 58.425-11.947 24.462-16.782 48.583-19.854 99.499-2.332 37.945-1.195 281.088 1.422 302.592 7.396 61.042 20.423 90.624 47.673 107.918 21.902 13.938 53.589 21.561 103.253 24.917 30.037 1.991 428.26 2.048 457.273 0.057z" />
<glyph unicode="&#xe922;" glyph-name="box" horiz-adv-x="979" d="M95.499 958.842c-40.826-5.743-77.023-35.617-90.067-74.262l-4.586-13.535-0.49-93.050c-0.356-63.265 0.045-96.479 1.291-103.691 2.716-15.716 11.531-32.768 22.884-44.077 5.254-5.298 11.798-10.774 14.514-12.154l4.942-2.582 0.49-293.398c0.534-329.461-0.668-299.008 12.956-326.879 12.333-25.155 37.665-46.303 65.803-54.94 9.394-2.894 24.799-3.027 365.702-3.027h355.862l12.243 3.829c18.254 5.654 31.967 13.98 44.878 27.114 17.568 17.238 29.274 40.395 31.885 66.238l0.037 0.456c0.89 7.88 1.558 130.182 1.603 296.604l0.134 283.247 9.127 6.545c17.052 12.154 29.607 32.234 33.080 52.803 1.247 7.391 1.692 40.47 1.336 103.914l-0.49 93.050-4.586 13.535c-11.219 33.258-40.337 60.861-75.509 71.591-9.216 2.805-28.627 2.938-403.901 3.161-216.821 0.089-396.466-0.089-399.137-0.49zM880.373 868.152c10.463-6.856 10.106-3.651 10.596-92.427 0.401-64.423 0.045-80.985-1.647-82.054-2.36-1.514-794.624-1.914-798.586-0.401-2.315 0.89-2.582 9.35-2.582 78.759 0 46.436 0.668 80.139 1.647 83.612 2.037 7.208 7.685 12.738 14.815 14.572l0.144 0.031c2.983 0.712 177.731 1.158 388.319 1.024 362.808-0.223 383.11-0.401 387.295-3.117zM845.201 320.089l-0.401-284.004-10.685-10.685h-689.063l-5.61 6.099-5.565 6.099v566.539h711.769l-0.445-284.049zM380.349 468.747c-14.075-4.816-25.026-15.519-30.076-29.093l-0.109-0.336c-7.302-22.038 5.075-46.792 27.47-55.029 3.74-1.425 34.905-1.959 113.753-2.048l108.544-0.089 8.147 3.784c9.171 4.274 19.501 14.781 23.151 23.552 1.578 4.748 2.49 10.214 2.493 15.893v0.002c0.006 0.278 0.010 0.606 0.010 0.935 0 18.371-11.319 34.099-27.364 40.588l-0.294 0.105c-8.415 3.117-12.644 3.25-115.178 3.117-58.546-0.089-108.277-0.712-110.547-1.38z" />
<glyph unicode="&#xe923;" glyph-name="connects" horiz-adv-x="1122" d="M529.896 957.269c-112.981-15.848-197.193-112.055-197.144-225.329 0-55.735 19.602-108.544 55.93-150.43 6.193-7.217 11.313-13.507 11.264-14.043 0-0.536-20.968-34.182-46.568-74.752-26.917-42.764-47.543-73.679-49.006-73.435-10.849 2.397-17.969 4.213-25.031 6.169l3.82-0.902c-25.502 6.68-65 8.338-91.672 3.803-49.074-8.277-91.711-31.384-124.212-64.478l-0.033-0.034c-38.278-38.473-59.294-83.090-65.536-138.971-0.627-6.43-0.984-13.901-0.984-21.455 0-28.876 5.224-56.532 14.778-82.075l-0.53 1.617c35.694-92.989 125.708-152.283 223.768-147.456 60.366 2.425 114.249 28.313 153.141 68.731l0.069 0.072c30.037 30.818 45.446 58.709 59.587 107.715 1.024 3.462 217.429 3.462 218.453 0 14.141-49.006 29.55-76.898 59.587-107.715 30.906-31.783 70.837-54.639 115.654-64.428l1.52-0.279c21.504-4.73 58.904-5.608 81.237-1.95 91.721 15.019 163.694 81.286 186.807 172.081 5.364 21.114 7.509 52.907 5.022 75.142-6.242 55.881-27.258 100.498-65.536 138.971-32.534 33.128-75.171 56.235-122.917 64.326l-1.328 0.186c-26.673 4.535-66.17 2.877-91.721-3.803-10.24-2.682-19.797-5.071-21.163-5.266-2.048-0.341-95.525 144.725-95.622 148.382 0 0.634 5.022 6.827 11.215 13.848 13.8 15.653 21.504 27.16 31.598 47.25 15.354 29.868 24.355 65.173 24.355 102.58 0 97.755-61.465 181.154-147.856 213.659l-1.572 0.519c-15.733 5.877-34.066 10.304-53.083 12.479l-1.091 0.101c-7.436 1.025-16.029 1.61-24.758 1.61-10.748 0-21.29-0.887-31.554-2.592l1.114 0.153zM599.089 857.161c43.691-13.458 80.506-52.955 89.673-96.305 3.56-16.628 3.56-43.008 0.049-59.636-9.606-45.3-51.249-87.040-98.158-98.353-13.214-3.17-46.568-3.17-59.782 0-46.763 11.264-88.844 53.346-98.158 98.255-1.671 8.939-2.627 19.223-2.627 29.73 0 10.605 0.974 20.982 2.836 31.047l-0.161-1.045c10.386 49.054 54.223 90.843 105.131 100.157 14.629 2.682 46.47 0.634 61.196-3.852zM503.662 510.415c17.135-4.484 36.806-7.059 57.079-7.059 20.483 0 40.352 2.628 59.288 7.566l-1.63-0.361c11.8 2.974 20.090 4.194 21.163 3.17 0.926-0.975 22.235-34.377 47.348-74.313l45.641-72.558-6.583-7.656c-28.818-33.451-44.666-63.195-56.027-105.277-0.488-1.853-23.942-2.341-109.178-2.341s-108.69 0.488-109.178 2.341c-11.362 42.082-27.209 71.826-56.027 105.326l-6.583 7.656 43.934 69.876c53.248 84.651 49.152 78.36 50.859 78.36 0.731 0 9.704-2.146 19.895-4.73zM269.166 328.533c18.92-6.193 35.011-16.579 52.614-34.133 13.653-13.556 17.506-18.871 24.625-33.694 4.681-9.655 9.46-22.479 10.63-28.477 3.072-15.262 2.584-48.421-0.878-61.976-7.607-29.598-29.696-59.831-56.759-77.629-37.059-24.332-88.308-27.258-128.39-7.363-31.787 15.998-55.898 43.343-67.303 76.589l-0.281 0.943c-4.437 13.263-5.022 17.798-5.022 40.18 0 22.284 0.585 26.965 4.974 40.18 14.682 43.549 49.89 76.566 93.813 87.909l0.932 0.204c15.848 3.755 55.784 2.243 71.046-2.731zM922.429 331.264c30.659-7.188 56.456-24.54 74.27-48.236l0.238-0.331c19.944-26.283 26.38-45.739 26.38-79.726 0-39.838-10.142-63.927-39.010-92.599-19.944-19.846-39.156-30.574-63.732-35.645-8.045-1.529-17.298-2.404-26.756-2.404-15.109 0-29.697 2.233-43.451 6.386l1.063-0.276c-39.985 12.824-75.483 50.712-86.065 91.819-3.511 13.605-3.998 46.421-0.926 61.83 7.070 35.401 36.523 71.973 72.655 90.405 20.675 10.484 59.246 14.434 85.333 8.777z" />
<glyph unicode="&#xe924;" glyph-name="chat" horiz-adv-x="1071" d="M208.756 958.045c-29.55-3.943-56.333-12.169-80.986-24.102l1.58 0.69c-29.51-14.755-66.56-46.452-84.992-72.751-22.535-31.702-37.739-70.101-42.352-111.694l-0.098-1.086c-2.607-23.738-2.607-400.198 0-423.936 6.097-55.715 28.207-101.981 67.584-141.405 31.075-31.627 71.116-54.349 116.004-64.050l1.524-0.276c14.615-3.165 25.321-3.863 69.911-4.655l52.643-0.884 53.527-52.969c29.417-29.091 57.949-55.808 63.348-59.345 44.311-28.951 94.72-35.84 142.243-19.503 31.046 10.705 37.143 15.407 98.63 76.241l56.18 55.622 51.759 0.838c53.946 0.884 63.441 1.908 89.46 9.449 40.681 11.776 71.727 30.441 102.633 61.719 37.052 37.799 61.294 88.277 65.626 144.335l0.049 0.794c2.327 28.020 2.327 383.907 0.047 411.741-4.451 57.103-28.803 107.796-66.041 145.821l0.040-0.041c-35.887 36.305-75.078 57.158-128.279 68.143-12.148 2.513-608.768 3.77-630.039 1.303zM838.609 862.208c50.362-15.5 87.552-55.343 100.212-107.38 1.908-7.913 2.374-50.409 2.374-218.577 0-235.799 0.931-219.089-14.336-249.809-18.199-35.495-49.426-62.142-87.211-73.915l-1.039-0.279c-12.474-3.724-18.060-4.049-79.407-5.027-64.977-1.024-66.141-1.117-74.054-5.26-5.12-2.7-29.975-26.019-68.701-64.465-37.236-37.004-63.395-61.626-67.817-63.767-9.052-4.705-19.764-7.464-31.121-7.464-10.102 0-19.693 2.183-28.329 6.103l0.431-0.175c-9.076 4.143-18.991 13.219-71.215 65.164-38.726 38.493-63.581 61.859-68.701 64.559-7.913 4.189-9.030 4.282-74.054 5.306-53.946 0.838-67.91 1.583-76.428 4.049-54.598 15.593-94.767 59.159-104.029 112.826-2.095 11.962-2.42 50.129-1.955 220.346l0.512 205.917 4.049 13.172c11.051 36.996 35.49 67.069 67.564 85.223l0.718 0.374c12.009 6.749 32.116 13.964 44.916 16.151 5.213 0.838 143.546 1.443 311.808 1.303l302.406-0.279 13.405-4.096zM273.268 676.212c-23.040-4.608-39.564-26.345-37.236-49.012 1.164-11.171 6.004-21.271 14.057-29.184 13.033-12.847-10.519-11.776 263.773-12.288 276.899-0.559 255.302-1.583 270.569 12.474 23.459 21.644 16.337 61.068-13.638 75.217l-8.052 3.77-240.873 0.279c-132.468 0.14-244.364-0.419-248.599-1.257zM264.052 438.877c-36.585-16.617-37.841-65.676-2.141-83.177l10.193-5.027h151.645c168.82 0 157.184-0.838 171.799 12.335 8.892 7.978 14.461 19.506 14.461 32.334 0 1.53-0.079 3.041-0.234 4.53l0.016-0.186c-0.931 13.359-4.143 20.573-13.033 29.463-13.498 13.498-0.093 12.474-171.194 12.94-151.273 0.419-153.6 0.372-161.513-3.212z" />
<glyph unicode="&#xe925;" glyph-name="rise" d="M351.588 958.175c-102.266-3.339-165.532-14.959-213.749-39.313-43.69-22.876-78.113-58.404-99.013-101.686l-0.582-1.337c-11.086-23.507-14.826-36.018-13.98-46.97 1.474-22.824 20.347-40.777 43.413-40.777 6.76 0 13.159 1.542 18.866 4.293l-0.26-0.113c12.154 5.788 18.387 13.49 26.312 32.768 8.637 21.014 15.85 32.813 28.138 46.080 33.213 35.885 75.821 49.775 174.125 56.899 15.048 1.069 84.146 2.449 153.6 3.027 125.24 1.069 126.353 1.113 133.12 4.764 8.103 4.363 16.339 12.733 20.703 21.059 2.226 4.274 3.161 9.617 3.161 18.744-0.045 15.093-3.562 23.24-14.247 32.902-12.733 11.487-13 11.531-122.969 11.219-54.049-0.178-115.534-0.846-136.637-1.558zM821.738 958.976c-27.826-4.051-44.789-9.038-64.824-19.055-40.241-20.556-71.395-54.086-88.41-94.977l-0.455-1.234c-8.045-20.755-12.707-44.775-12.707-69.883 0-9.047 0.605-17.953 1.777-26.68l-0.112 1.019c11.057-70.494 60.514-127.145 125.931-148.422l1.312-0.369c46.525-14.603 102.177-9.038 143.939 14.336 23.196 13 50.221 37.576 63.577 57.878 13.357 20.257 24.531 47.238 29.073 70.3 3.072 15.805 2.582 54.049-0.979 70.3-15.85 72.838-71.68 128.668-143.405 143.494-13.357 2.716-45.234 4.675-54.717 3.295zM860.383 868.775c34.504-7.302 65.091-37.799 72.348-72.17 7.079-33.391-2.003-64.69-25.645-88.331-19.857-19.901-39.624-28.182-67.317-28.182-28.583 0-48.573 8.147-68.074 27.603-19.456 19.501-27.603 39.491-27.603 68.074 0 18.477 2.716 29.651 10.863 45.145 6.678 12.689 24.442 30.898 37.22 38.111 13.725 7.507 30.068 11.922 47.442 11.922 7.354 0 14.524-0.791 21.428-2.293l-0.662 0.121zM29.518 629.604c-9.216-3.384-20.346-14.202-24.977-24.309-3.562-7.836-3.651-9.706-4.23-126.976-0.623-115 1.247-212.191 4.808-254.753 5.254-61.885 17.764-113.709 36.508-150.662 19.189-37.843 57.433-76.088 95.277-95.277 36.953-18.744 88.776-31.254 150.662-36.508 64.957-5.432 353.547-6.678 424.96-1.781 117.226 8.058 180.224 29.696 229.331 78.803 41.361 41.361 63.443 93.896 73.505 174.748 5.832 46.97 7.079 78.269 8.103 204.8 1.158 138.329 1.291 135.925-10.952 149.504-9.661 10.685-17.809 14.202-32.902 14.202-14.514 0-22.706-3.339-31.789-13-12.466-13.223-11.576-3.562-12.778-143.894-1.247-145.274-3.651-189.707-12.778-234.674-12.644-62.33-40.648-99.729-89.711-119.719-49.375-20.168-114.599-25.288-321.402-25.288-178.443 0-239.794 3.384-291.617 16.295-62.82 15.627-98.794 51.601-114.421 114.421-13.267 53.382-16.473 114.822-16.25 310.539 0.178 143.672 0.579 136.949-9.617 150.305-10.195 13.401-32.902 19.456-49.731 13.223zM736.167 584.682c-14.202-3.606-17.72-7.079-72.259-72.214-28.658-34.493-49.401-58.89-70.324-83.127l6.88 8.153-9.661-10.819-6.322 5.966c-12.048 13.029-24.502 27.16-36.618 41.584l-1.492 1.825c-15.729 18.674-30.029 34.864-44.675 50.729l0.91-0.998c-21.905 22.483-43.854 33.169-68.118 33.169-25.867 0-44.21-9.038-69.276-34.148-19.322-19.367-121.722-141.535-126.798-151.285-7.213-13.891-4.675-34.549 5.743-47.193 12.6-15.137 35.929-20.079 53.649-11.264 7.435 3.695 15.538 12.6 62.286 68.519 29.562 35.35 58.101 69.098 63.399 75.019l9.661 10.73 6.367-5.966c3.473-3.295 20.48-22.662 37.754-43.053 50.666-59.748 64.69-72.348 88.954-79.872 31.833-9.795 61.885-0.045 91.848 29.785 17.185 17.141 124.928 145.898 128.223 153.244 6.189 13.891 3.473 34.193-6.099 45.768-9.884 11.887-30.097 18.966-44.032 15.449z" />
<glyph unicode="&#xe926;" glyph-name="target" d="M472.732 958.13c-75.234-5.995-144.301-27.347-205.742-60.91l2.679 1.34c-20.035-10.863-27.96-18.343-32.634-30.631-10.819-28.672 10.819-58.991 41.984-58.813 9.439 0.045 12.555 1.202 39.268 14.737 44.878 22.706 88.732 36.953 131.829 42.785l17.497 2.36v-54.984c0-60.149 0.445-63.533 10.106-75.687 21.059-26.579 64.69-18.788 76.132 13.535 2.048 5.788 2.538 17.853 2.538 62.197v55.029l3.829-0.579c84.369-12.199 145.007-36.73 208.985-84.547 21.459-16.028 62.731-57.299 78.759-78.759 47.816-63.978 72.348-124.616 84.547-208.985l0.579-3.829h-54.94c-44.789 0-56.32-0.49-62.598-2.627-17.297-6.279-29.43-22.572-29.43-41.698 0-7.458 1.845-14.486 5.104-20.651l-0.116 0.241c2.671-4.897 7.747-11.175 11.219-13.935 12.154-9.661 15.538-10.106 75.731-10.106h55.029l-0.579-3.829c-12.199-84.369-36.73-145.007-84.547-208.985-16.028-21.459-57.299-62.731-78.759-78.759-63.889-47.816-124.928-72.481-208.896-84.547l-3.784-0.534-0.49 47.994c-0.49 47.727-0.534 48.083-4.897 56.498-6.378 11.443-17.067 19.833-29.816 23.037l-0.326 0.069c-2.562 0.521-5.507 0.819-8.522 0.819-17.098 0-31.956-9.59-39.489-23.685l-0.117-0.24c-4.363-8.415-4.408-8.771-4.897-56.498l-0.49-47.994-3.784 0.534c-83.968 12.065-145.007 36.73-208.896 84.547-21.459 16.028-62.731 57.299-78.759 78.759-47.816 63.978-72.348 124.616-84.547 208.985l-0.579 3.829h45.546c52.358 0 57.433 0.935 69.098 12.644 9.884 9.884 13.401 18.209 13.401 31.744s-3.517 21.86-13.401 31.744c-11.665 11.709-16.74 12.644-69.053 12.644h-45.501l2.36 17.497c5.832 43.097 20.079 86.951 42.785 131.829 13.535 26.713 14.692 29.83 14.737 39.268 0.178 31.165-30.141 52.803-58.813 41.984-12.288-4.675-19.768-12.6-30.631-32.634-38.447-70.113-61.063-153.625-61.063-242.419 0-43.905 5.529-86.519 15.929-127.183l-0.769 3.544c30.038-116.874 96.971-215.034 187.423-283.885l1.26-0.92c131.206-98.527 297.939-128.267 455.903-81.297 56.008 16.651 118.161 48.929 167.624 87.040 20.881 16.117 70.923 66.159 87.040 87.040 28.584 37.124 53.227 79.533 72.019 124.976l1.352 3.692c22.43 55.487 35.445 119.838 35.445 187.229 0 66.875-12.816 130.757-36.125 189.323l1.215-3.46c-18.846 46.819-41.934 87.241-69.67 123.957l0.973-1.344c-21.771 29.251-70.122 77.601-99.373 99.373-102.712 76.533-220.783 111.171-347.893 102.133zM501.359 584.459c-9.763-2.821-18.001-8.335-24.111-15.682l-0.064-0.079c-8.058-10.596-9.572-18.076-9.572-48.395v-27.915h-27.826c-31.521 0-39.224-1.692-50.042-10.997-9.185-7.824-14.973-19.4-14.973-32.327 0-0.374 0.005-0.747 0.014-1.119l-0.001 0.055c0.045-13.357 3.651-21.816 13.579-31.744 10.685-10.73 18.477-12.644 51.423-12.644h27.826v-27.826c0-32.946 1.914-40.737 12.644-51.423 9.884-9.884 18.209-13.401 31.744-13.401s21.86 3.517 31.744 13.401c10.73 10.685 12.644 18.477 12.644 51.423v27.826h27.826c32.946 0 40.737 1.914 51.423 12.644 9.884 9.884 13.401 18.209 13.401 31.744s-3.517 21.86-13.401 31.744c-10.685 10.73-18.477 12.644-51.423 12.644h-27.826v27.826c0 21.459-0.668 29.785-2.849 36.152-4.591 10.863-12.541 19.561-22.53 24.979l-0.265 0.132c-5.831 2.46-12.61 3.889-19.723 3.889-3.417 0-6.756-0.33-9.989-0.959l0.328 0.053z" />
<glyph unicode="&#xe927;" glyph-name="mail-open" d="M480.811 958.037c-4.011-1.109-92.288-63.104-232.96-163.584-124.587-88.96-229.504-164.309-233.173-167.467-4.29-4.022-7.859-8.749-10.534-14.006l-0.133-0.287-3.968-8.533v-252.587c0-163.584 0.597-256.384 1.707-263.296 4.992-30.72 18.304-56.661 39.979-78.037 20.992-20.651 47.445-34.133 75.477-38.4 7.936-1.237 130.475-1.621 382.848-1.323l371.2 0.469 12.8 3.968c28.544 8.789 52.821 24.491 70.059 45.355 10.581 12.8 22.571 36.565 27.648 54.784l3.797 13.653 0.512 255.616c0.341 175.957-0.085 257.707-1.323 262.315-1.778 5.256-4.255 9.813-7.376 13.846l0.080-0.108c-3.712 4.736-78.891 59.392-232.491 169.173-124.843 89.216-229.973 163.755-233.6 165.589-5.77 2.592-12.507 4.102-19.596 4.102-3.884 0-7.662-0.453-11.285-1.31l0.331 0.066zM680.832 730.88c102.699-73.472 186.752-134.315 186.795-135.253 0.043-1.621-364.459-260.267-371.968-263.936-3.072-1.493-27.605 15.275-190.379 130.261-143.682 99.027-204.786 142.788-265.697 186.801l78.049-53.681c-0.683 1.067 373.163 269.355 375.381 269.355 0.597 0 85.12-60.075 187.819-133.547zM290.901 368.085c97.621-68.907 180.565-126.933 184.32-128.939 5.178-2.408 11.24-3.813 17.631-3.813 7.015 0 13.635 1.693 19.473 4.693l-0.24-0.112c4.309 2.432 92.629 64.256 196.267 137.472-161.092-107.093-99.007-62.907-36.85-18.815l227.527 153.215c1.749 1.067 2.048-39.125 1.707-207.445l-0.469-208.768-3.925-8.704c-5.85-11.374-14.747-20.476-25.618-26.419l-0.324-0.162-7.68-3.968-367.275-0.427c-365.781-0.469-367.275-0.427-376.533 3.029-13.594 5.887-24.218 16.496-29.98 29.712l-0.143 0.368c-3.413 9.131-3.456 12.416-3.456 216.704v207.445l14.080-9.899c7.765-5.419 93.909-66.219 191.488-135.168z" />
<glyph unicode="&#xe928;" glyph-name="paper" d="M181.916 958.219c-88.242-10.418-158.809-75.999-177.953-165.487-2.938-13.713-3.117-31.477-3.117-334.492v-319.978l3.651-7.88c2.671-5.832 24.487-29.162 83.612-89.622 43.987-44.922 82.232-83.434 84.947-85.526 13.668-10.418 34.816-11.843 49.152-3.339 4.051 2.36 35.35 33.169 69.632 68.385 34.282 35.261 62.776 64.156 63.354 64.156 0.623 0.045 29.785-29.251 64.868-65.046 70.433-71.903 71.903-73.105 91.091-73.105 19.1 0 20.658 1.247 91.091 73.194 35.083 35.84 64.334 64.913 65.002 64.646s29.473-29.473 64.067-64.913c69.587-71.279 71.68-72.971 90.335-72.971 19.59 0.045 19.812 0.223 101.643 83.79 40.826 41.672 77.112 77.69 80.629 80.095 4.101 2.945 7.634 6.322 10.646 10.131l0.083 0.109c9.973 13.535 9.483-5.476 8.904 342.283-0.534 299.186-0.757 319.8-3.606 331.821-20.035 84.191-77.29 141.446-161.48 161.48-12.065 2.894-32.367 3.072-338.81 3.339-179.245 0.178-331.286-0.312-337.742-1.069zM854.55 865.658c34.148-11.576 63.533-41.049 75.153-75.331l4.675-13.802 0.49-303.772 0.445-303.772-55.697-57.21c-19.242-19.973-37.788-38.744-56.565-57.282l-0.334-0.329c-0.668-0.267-30.364 29.206-65.937 65.536-49.286 50.265-66.515 66.827-72.303 69.365-5.286 2.163-11.421 3.419-17.849 3.419-6.718 0-13.117-1.372-18.93-3.85l0.316 0.12c-5.521-2.671-25.6-22.038-72.036-69.409-35.439-36.152-64.957-65.491-65.581-65.224-0.579 0.267-29.651 29.741-64.557 65.447-45.279 46.347-65.714 66.070-71.235 68.831-5.668 2.528-12.282 4.001-19.24 4.001-6.343 0-12.401-1.224-17.949-3.448l0.325 0.115c-5.699-2.538-23.151-19.233-72.259-69.32-35.617-36.33-65.358-65.848-66.070-65.581-18.907 18.579-37.162 37.032-55.155 55.739l-0.853 0.892-54.717 56.142 0.89 609.592 4.719 13.802c13.713 40.426 50.354 72.214 91.314 79.16 4.452 0.757 153.645 1.291 331.509 1.158l323.406-0.223 14.024-4.764zM292.196 687.661c-14.408-6.858-24.19-21.3-24.19-38.027 0-0.39 0.005-0.778 0.016-1.165l-0.001 0.057c0-22.884 14.425-39.535 37.754-43.498 7.48-1.291 73.862-1.692 215.619-1.38l204.8 0.534 8.504 3.918c10.084 4.089 17.998 11.772 22.291 21.421l0.104 0.261c2.621 5.45 4.152 11.849 4.152 18.606 0 16.859-9.532 31.491-23.501 38.801l-0.241 0.115-9.127 4.764h-427.32l-8.86-4.408zM300.344 468.614c-13.535-4.185-27.603-17.764-30.898-29.83-2.36-8.726-1.113-26.001 2.404-32.679 4.23-8.058 13.312-16.339 22.751-20.703l8.771-4.007 426.207 0.89 7.079 3.784c9.127 4.897 19.99 17.274 22.528 25.778 1.215 3.926 1.915 8.439 1.915 13.115 0 17.581-9.894 32.851-24.417 40.547l-0.249 0.12-6.856 3.695-212.458 0.312c-116.87 0.134-214.417-0.312-216.776-1.024z" />
<glyph unicode="&#xe929;" glyph-name="paper2" horiz-adv-x="890" d="M110.948 957.685c-52.215-9.312-93.467-47.792-106.686-97.68l-0.211-0.936-3.295-12.6v-796.939l3.339-12.555c11.62-43.542 43.364-78.403 84.68-92.828 24.621-8.593 7.435-8.237 362.407-7.747 359.469 0.445 329.283-0.356 354.883 9.35 38.467 14.603 69.142 49.464 80.273 91.225l3.339 12.555v522.596l-4.452 8.058c-6.678 12.11-366.369 370.465-376.921 375.496l-7.435 3.562-189.217 0.267c-156.984 0.223-191.176-0.089-200.704-1.825zM445.574 709.565l0.401-161.391 3.428-6.945c4.363-8.904 13.357-17.898 22.261-22.261l6.945-3.428 322.783-0.801v-226.794c0-254.175 0.89-234.362-11.086-247.719-3.898-4.167-8.368-7.73-13.302-10.582l-0.277-0.148-7.257-3.695h-648.504l-7.257 3.695c-5.211 3-9.682 6.563-13.549 10.697l-0.030 0.032c-12.154 13.535-11.086-25.466-11.086 407.775 0 431.95-0.979 394.106 10.685 407.374 5.699 6.456 13.802 11.709 21.949 14.202 2.048 0.623 75.687 1.202 163.617 1.247l159.878 0.134 0.401-161.391zM636.661 705.469l101.643-101.643h-204.043v101.643c0 55.919 0.178 101.688 0.356 101.688 0.223 0 46.125-45.768 102.044-101.688zM255.199 331.709c-21.638-5.877-35.84-29.384-31.21-51.601 3.295-15.805 17.942-30.72 33.302-33.881 5.209-1.113 66.56-1.469 194.605-1.202l186.991 0.401 8.415 4.141c9.171 4.497 15.672 10.952 20.881 20.747 4.764 8.993 4.764 28.761 0 37.754-4.528 9.106-11.751 16.3-20.616 20.674l-0.265 0.118-8.415 4.141-188.461 0.267c-145.853 0.223-190.019-0.134-195.228-1.558z" />
<glyph unicode="&#xe92a;" glyph-name="clock" horiz-adv-x="981" d="M462.037 959.019c-98.901-7.851-187.051-40.491-262.528-97.323-10.411-7.808-24.021-18.859-30.293-24.533l-11.392-10.325-1.365 7.296c-3.371 18.048-10.709 29.141-23.68 35.755-5.433 2.728-11.839 4.325-18.618 4.325-17.19 0-31.982-10.268-38.576-25.006l-0.107-0.268c-3.285-7.637-3.456-10.709-3.584-79.957-0.128-80.299-0.299-78.933 11.179-90.837 3.328-3.456 9.003-7.893 12.587-9.813 6.443-3.499 7.808-3.541 80.171-3.541 81.835 0 79.147-0.341 92.032 11.307 8.171 7.343 13.287 17.946 13.287 29.744 0 1.365-0.069 2.715-0.202 4.045l0.014-0.168c-0.896 12.245-3.797 18.816-11.947 26.965-10.539 10.539-13.611 11.435-42.069 12.032-14.165 0.341-25.771 1.195-25.771 1.92 0 1.579 23.808 23.168 40.107 36.309 43.861 35.413 104.96 64.981 159.744 77.227 37.077 8.277 50.517 9.728 90.453 9.685 30.165-0.043 42.155-0.725 60.501-3.541 62.483-9.562 118.31-32.212 166.598-65.109l-1.393 0.896c59.457-39.776 106.596-93.648 137.298-156.969l1.027-2.348c18.773-38.741 29.995-75.264 36.907-120.192 3.584-23.339 4.011-77.995 0.811-103.040-7.194-56.771-24.899-108.145-51.154-153.995l1.064 2.016c-12.629-22.016-14.464-27.307-13.568-39.168 0.895-15.409 10.042-28.49 23.054-34.963l0.242-0.109c9.771-5.163 26.837-4.949 37.504 0.512 9.984 5.077 14.379 10.411 27.264 33.109 93.739 165.163 82.176 372.736-29.269 526.251-79.787 109.867-197.291 179.883-332.203 198.016-22.613 3.029-76.245 5.205-94.123 3.797zM479.744 714.581c-12.563-2.963-22.846-10.985-28.77-21.745l-0.115-0.228c-3.499-6.528-3.541-7.339-3.968-120.107-0.427-100.181-0.171-114.475 2.133-121.813 2.432-7.723 7.723-13.397 69.163-74.325 73.259-72.661 74.709-73.813 92.928-73.856 22.984 0.143 41.561 18.808 41.561 41.813 0 6.495-1.481 12.644-4.124 18.128l0.109-0.25c-2.987 6.357-16.512 20.736-60.416 64.427l-56.576 56.192-0.469 99.968c-0.469 97.451-0.555 100.181-3.883 107.349-6.99 15.020-21.954 25.246-39.306 25.246-2.925 0-5.782-0.291-8.543-0.844l0.276 0.046zM25.344 503.851c-12.8-5.973-22.827-19.499-24.747-33.408-1.493-10.965 2.432-61.525 6.741-86.955 40.644-232.257 240.789-406.531 481.638-406.531 66.169 0 129.266 13.154 186.819 36.99l-3.241-1.189c32.085 12.885 68.864 33.323 76.971 42.752 18.56 21.717 8.832 57.003-18.219 66.219-14.037 4.779-22.827 3.499-40.661-5.973-26.197-13.909-43.221-21.931-59.691-28.117-42.159-16.309-90.946-25.758-141.941-25.758-66.492 0-129.233 16.065-184.551 44.525l2.268-1.060c-77.91 39.841-139.622 101.965-177.893 177.923l-1.051 2.301c-28.117 56.32-39.808 104.96-43.179 179.669-0.811 18.005-9.6 31.701-24.747 38.613-9.003 4.053-25.728 4.053-34.517 0z" />
<glyph unicode="&#xe92b;" glyph-name="stat2" d="M471.886 958.353c-69.409-6.278-128.757-22.973-189.306-53.293-131.979-67.29-229.39-186.39-266.267-329.783l-0.775-3.552c-9.687-37.173-15.248-79.847-15.248-123.821 0-116.116 38.779-223.175 104.092-308.933l-0.913 1.249c56.097-74.663 133.654-133.565 221.718-168.47 55.371-22.38 119.586-35.365 186.833-35.365 67.333 0 131.626 13.018 190.499 36.675l-3.439-1.22c116.777 46.861 210.014 131.9 266.188 239.377l1.343 2.822c61.485 120.164 73.683 252.839 35.128 382.397-25.244 84.992-74.663 163.439-143.583 227.996-67.629 63.354-162.415 110.904-253.151 126.931-39.046 6.901-99.373 10.062-133.12 6.99zM548.686 869.487c81.92-7.658 153.466-35.395 220.516-85.526 21.459-16.028 62.731-57.299 78.759-78.759 42.741-57.166 69.899-119.496 81.208-186.368 19.59-116.157-8.904-231.335-81.208-328.036-16.028-21.459-57.299-62.731-78.759-78.759-96.701-72.303-211.879-100.797-328.036-81.208-66.872 11.309-129.202 38.467-186.368 81.208-21.459 16.028-62.731 57.299-78.759 78.759-72.303 96.701-100.797 211.879-81.208 328.036 11.353 67.050 38.378 129.069 81.208 186.368 16.028 21.459 57.299 62.731 78.759 78.759 86.906 65.002 190.642 95.187 293.888 85.526zM589.779 722.744c-10.818-4.356-19.347-12.496-24.105-22.742l-0.115-0.276-4.051-8.504 0.045-243.222c0-240.818 0.045-243.267 3.473-250.88 6.856-15.182 24.353-27.292 39.313-27.292 16.117 0 31.878 9.439 39.936 23.997l5.12 9.261v489.828l-5.12 9.261c-11.175 20.168-33.703 28.672-54.495 20.569zM403.723 629.782c-14.148-5.282-24.727-17.14-28.123-31.755l-0.059-0.301c-1.291-6.278-1.736-53.515-1.38-154.936 0.49-161.258-0.223-150.929 11.576-164.419 7.569-8.593 17.363-13.267 30.008-14.291 1.447-0.237 3.114-0.372 4.813-0.372 5.446 0 10.568 1.391 15.029 3.838l-0.163-0.082c10.329 4.764 18.61 12.511 23.151 21.638 2.894 5.788 3.072 15.36 3.072 158.898s-0.178 153.11-3.072 158.898c-9.973 20.079-34.282 30.186-54.851 22.884zM212.013 534.061c-9.504-4.615-16.901-12.329-20.996-21.803l-0.107-0.279c-2.805-6.144-3.117-12.288-3.117-63.978s0.312-57.834 3.117-63.978c13.49-29.562 52.402-35.885 73.416-11.932 11.353 12.911 11.309 12.689 11.309 75.91s0.045 62.998-11.309 75.91c-8.182 8.967-19.917 14.572-32.962 14.572-7.038 0-13.695-1.631-19.614-4.537l0.262 0.116zM773.966 534.461c-9.35-4.363-18.477-13.668-22.84-23.196-4.141-9.127-4.141-117.404 0-126.531 16.339-35.885 65.714-36.33 81.965-0.712 2.805 6.144 3.117 12.333 3.117 64.067l0.045 57.255-4.363 8.86c-7.301 14.591-22.133 24.434-39.264 24.434-6.777 0-13.195-1.54-18.921-4.29l0.263 0.114z" />
<glyph unicode="&#xe92c;" glyph-name="tel-up" d="M123.733 957.44c-44.373-8.249-84.878-38.969-103.424-78.507-11.264-24.121-15.417-47.9-18.887-108.43-5.12-89.429 8.135-190.805 36.238-277.504 45.382-139.094 124.088-256.827 226.908-347.96l0.818-0.712c113.252-100.644 257.159-169.119 416.070-189.873l3.941-0.421c67.925-8.875 178.574-7.225 219.25 3.356 40.861 10.569 73.867 37.988 91.736 74.212l0.367 0.824c14.62 29.525 14.222 26.055 14.905 123.733 0.455 60.985 0.057 89.941-1.365 98.987-7.851 49.436-43.748 95.118-89.771 114.119-5.209 3.18-38.521 14.841-72.030 26.072l-28.322 8.232c-86.528 28.786-88.917 29.468-105.756 30.265-2.196 0.142-4.762 0.223-7.347 0.223-33.959 0-64.648-14.003-86.608-36.549l-0.026-0.026c-16.384-16.498-22.244-26.681-34.133-59.278-2.966-8.817-11.157-15.055-20.804-15.055-3.913 0-7.585 1.026-10.764 2.823l0.109-0.057c-2.674 1.365-43.691 41.756-91.25 89.828-94.72 95.801-92.672 93.298-87.154 107.179 3.129 7.851 8.875 11.947 22.926 16.384 19.228 6.087 32.597 14.507 48.811 30.606 12.857 12.857 16.839 18.148 23.324 31.175 10.638 21.39 13.824 36.523 12.857 61.668l-0.74 19.911-30.436 91.307c-16.725 50.233-32.654 95.915-35.499 101.547-21.902 44.146-65.081 75.036-115.598 82.773-17.010 2.56-163.612 1.934-178.347-0.853zM295.538 855.836c8.875-2.446 21.902-11.833 27.42-19.74 3.072-4.38 14.393-36.068 33.052-92.615 27.136-82.034 28.331-86.244 26.453-92.501-2.389-7.964-9.728-13.938-21.504-17.465-39.082-12.040-69.396-41.812-81.953-79.679l-0.252-0.876c-5.916-18.204-7.225-43.975-3.3-63.204 2.958-14.45 10.98-33.109 19.968-46.421 3.015-4.494 46.99-49.892 97.792-100.921 96.028-96.54 105.358-104.846 126.805-112.868 48.754-18.204 101.717-6.201 135.851 30.777 13.483 14.62 20.423 26.226 27.534 46.137 6.884 19.399 12.516 25.486 23.609 25.486 4.836 0 34.873-9.33 90.453-28.103 45.739-15.474 85.276-29.241 87.893-30.606 7.111-3.755 16.896-14.62 20.764-23.211 3.3-7.339 3.47-10.98 3.47-85.788 0.057-85.333 0.228-83.854-10.069-95.573-8.932-10.183-16.441-12.629-48.526-15.872-35.499-3.527-116.224-2.674-148.423 1.65-111.787 14.905-204.288 49.152-295.538 109.397-155.022 102.4-261.234 264.647-294.457 449.707-7.452 41.813-9.273 65.422-9.216 119.467 0.114 58.368 2.901 89.941 9.102 102.059 5.204 8.969 12.964 15.959 22.278 20.075l0.307 0.121c7.396 2.674 151.097 3.186 160.484 0.569z" />
<glyph unicode="&#xe92d;" glyph-name="tel-cut" d="M120.298 957.507c-51.912-9.884-94.297-47.95-108.41-97.325-10.552-37.042-14.425-128.356-8.326-197.855 13.089-150.35 73.416-302.481 166.867-420.819 33.035-41.85 68.43-78.314 79.605-81.965 8.993-2.938 24.175-2.671 31.833 0.534 9.483 3.962 19.411 13.935 23.641 23.775 2.128 4.425 3.371 9.62 3.371 15.105 0 1.739-0.125 3.448-0.366 5.12l0.023-0.191c-1.069 14.559-3.918 19.723-20.792 37.398-146.521 153.689-217.177 359.647-194.783 567.697 3.161 29.34 8.281 41.806 21.103 51.289 14.959 11.041 16.696 11.219 103.825 10.641 75.91-0.49 78.447-0.623 85.882-4.185 4.23-2.003 10.596-5.832 14.113-8.504 14.202-10.863 16.473-16.028 47.371-109.434 15.939-48.217 28.984-89.756 28.939-92.249-0.045-6.856-5.61-17.809-11.62-22.84-4.848-3.399-10.442-6.212-16.427-8.156l-0.447-0.125c-19.817-6.015-36.728-16.61-50.138-30.591l-0.038-0.040c-11.887-11.754-16.028-17.274-21.727-29.028-10.151-20.836-13.045-33.169-13-55.474 0-14.826 0.846-21.459 3.962-31.566 5.654-18.165 14.336-33.837 26.713-48.173 5.877-6.812 51.289-52.803 100.931-102.222l90.201-89.8 15.672-7.747c21.415-10.596 36.73-13.802 60.861-12.778 13.713 0.579 22.172 1.914 30.141 4.675 39.090 13.624 65.358 40.648 78.447 80.762 2.093 6.367 5.788 13.935 8.237 16.874 4.986 5.877 15.983 11.531 22.617 11.576 6.634 0.089 181.070-58.68 188.639-63.577 9.528-6.055 16.829-14.247 22.35-25.11l4.808-9.394 0.534-80.362c0.49-77.557 0.356-80.718-3.027-89.756-4.48-12.251-13.239-22.035-24.426-27.739l-0.284-0.131c-7.302-3.606-13.891-4.986-32.323-6.812-127.777-12.778-246.65 5.565-362.006 55.875-27.826 12.11-38.066 13.846-52.090 8.815-22.617-8.147-34.682-34.727-25.778-56.721 5.476-13.535 11.353-18.877 30.23-27.737 76.422-36.015 165.212-60.796 258.671-69.484l3.161-0.237c71.947-6.189 163.751-2.226 199.057 8.593 45.412 13.891 83.167 54.227 93.985 100.352 2.76 11.62 3.072 22.483 3.027 103.424-0.045 88.42-0.134 90.78-3.873 104.136-11.309 40.248-40.693 76.399-76.31 93.896-6.545 3.206-54.94 20.213-107.52 37.799l-95.588 31.967h-19.59c-15.716 0-22.216-0.757-32.367-3.918-42.385-13.089-69.587-39.936-83.612-82.588-7.213-21.86-19.59-30.319-38.867-26.535-7.925 1.558-10.863 4.319-99.194 93.229-50.042 50.399-92.516 94.52-94.297 97.992-1.954 3.752-3.1 8.194-3.1 12.904 0 4.945 1.264 9.595 3.486 13.645l-0.074-0.147c4.408 9.038 10.062 13.223 24.977 18.298 47.727 16.25 77.423 51.734 84.28 100.753 3.295 23.597 1.202 32.278-32.723 134.678-33.97 102.623-37.487 110.726-58.012 132.986-19.312 20.773-44.069 36.234-72.004 44.123l-1.101 0.266c-12.333 3.428-17.319 3.606-99.15 4.007-66.293 0.312-88.954-0.089-98.17-1.87z" />
<glyph unicode="&#xe92e;" glyph-name="notif2" horiz-adv-x="890" d="M422.645 957.997c-13.809-3.973-24.632-14.181-29.377-27.298l-0.097-0.305c-2.538-6.634-2.849-11.576-2.849-42.251v-34.727l-10.774-1.736c-72.348-11.62-137.35-44.21-186.635-93.496-53.337-53.382-83.033-123.548-83.122-196.341-0.045-56.676-8.86-113.041-25.066-160.011-8.726-25.288-15.271-39.357-41.138-88.376-40.203-76.132-45.768-90.691-42.296-111.037 3.295-19.1 11.353-32.59 25.956-43.32 12.6-9.305 23.641-12.199 52.892-13.98 15.627-0.979 150.929-1.291 373.983-0.979 328.882 0.49 350.163 0.668 360.537 3.161 14.737 3.517 24.175 8.504 34.237 18.12 12.644 12.065 19.233 27.782 19.233 45.857 0 17.987-5.521 31.432-39.535 95.944-3.503 5.415-12.91 23.342-22.088 41.404l-6.139 13.314c-27.292 59.704-37.532 107.030-40.648 187.704-1.647 42.607-4.185 62.464-11.041 86.105-16.161 55.786-47.683 103.29-94.653 142.648-42.963 36.063-96.968 60.817-156.36 71.769l-18.031 3.339-0.579 35.795c-0.534 33.302-0.801 36.374-3.918 43.409-8.771 19.723-32.189 31.032-52.491 25.288zM469.037 764.817c82.232-10.819 152.131-58.323 183.296-124.483 13.446-28.583 16.651-44.566 18.477-91.403 1.825-46.881 4.452-72.481 10.552-103.914 6.678-34.415 16.696-68.519 28.984-98.66 6.144-15.137 11.976-26.847 44.967-90.157l12.199-23.374h-332.577c-182.895 0-332.533 0.445-332.533 1.024 0 0.534 8.949 18.076 19.857 38.957 26.312 50.176 29.073 55.875 36.909 75.019 23.997 58.991 35.217 115.267 38.289 192.022 0.846 20.925 2.493 44.077 3.695 51.556 9.572 59.526 51.155 113.931 111.972 146.387 44.566 23.775 103.335 33.97 155.915 27.025zM287.165 75.531c-7.9-1.72-14.693-5.673-19.885-11.157l-0.017-0.018c-12.644-11.843-17.052-28.583-12.11-45.991 5.521-19.545 52.892-52.58 97.458-68.029 24.494-8.694 52.743-13.718 82.167-13.718 53.96 0 103.974 16.898 145.038 45.69l-0.811-0.539c27.915 19.411 37.131 32.011 37.131 50.666 0.017 0.442 0.027 0.96 0.027 1.481 0 12.043-5.261 22.858-13.609 30.271l-0.042 0.036c-7 7.196-16.636 11.797-27.344 12.241l-0.081 0.003c-11.709 1.069-22.216-2.849-34.816-13-35.128-28.316-70.033-39.981-113.53-37.933-38.2 1.781-65.491 12.689-100.708 40.203-12.422 9.706-25.956 13.134-38.867 9.795z" />
<glyph unicode="&#xe92f;" glyph-name="coins2" horiz-adv-x="942" d="M576.225 959.058c-73.605-6.39-125.215-19.128-171.254-42.271-24.822-12.493-53.985-34.775-62.996-48.087-17.572-26.051 1.352-62.423 32.604-62.546 12.247-0.041 20.931 3.768 32.932 14.418 22.692 20.111 46.817 31.99 87.859 43.336 50.053 13.804 117.924 17.9 172.319 10.445 74.547-10.24 135.619-38.543 152.33-70.574 14.582-27.976-20.808-61.399-88.965-83.968-18.022-5.98-26.092-12.165-31.785-24.371-2.258-4.854-3.576-10.536-3.576-16.527 0-11.975 5.265-22.72 13.607-30.047l0.045-0.039c6.39-5.775 18.842-10.691 26.952-10.691 10.486 0 49.111 13.722 73.032 25.887 7.619 3.891 14.090 7.086 14.418 7.086s0.573-25.559 0.573-56.771v-56.771l-3.891-5.12c-11.059-14.459-46.653-31.457-87.163-41.574-17.408-4.301-24.781-7.66-31.293-14.172-26.542-26.542-4.014-72.827 33.3-68.444 12.657 1.516 47.104 11.387 66.273 19.046l20.029 7.987c2.58 0.983 2.744-2.13 2.744-51.814v-52.838l-7.496-7.373c-13.64-13.394-36.004-24.412-69.427-34.12-35.963-10.445-40.428-13.066-47.8-27.812-12.984-26.092 6.39-57.713 35.348-57.713 16.876 0 58.941 13.066 88.596 27.484 24.412 11.878 35.594 19.661 51.978 36.045 15.442 15.483 23.593 29.123 27.648 46.408 1.597 6.799 2.007 57.139 2.007 241.746v233.185l-5.325 15.36c-23.593 68.198-110.1 117.883-230.195 132.26-19.661 2.335-78.889 4.219-93.43 2.949zM265.339 701.46l-23.552-2.212c-51.487-4.833-106.619-20.152-146.637-40.714-20.125-10.061-37.411-22.324-52.547-36.814l0.077 0.073c-20.398-19.62-30.925-35.84-38.216-59.064l-3.686-11.756v-447.488l3.686-11.715c12.329-39.199 42.68-71.352 90.685-95.887 40.591-20.808 87.204-33.997 145.080-41.083 21.709-2.662 94.536-2.662 116.204 0 128.164 15.77 213.361 65.249 235.766 136.929l3.645 11.756v447.488l-3.645 11.756c-7.332 23.347-17.818 39.444-38.502 59.31-44.933 43.090-122.143 71.393-215.163 78.848-18.719 1.475-60.293 1.802-73.196 0.573zM359.014 617.042c65.454-9.667 117.391-30.597 142.418-57.344 18.309-19.579 17.818-35.348-1.843-55.009-26.952-26.952-76.554-46.449-142.377-55.992-26.378-3.809-89.62-3.85-116.982-0.041-41.124 5.734-76.8 15.811-104.038 29.409-19.292 9.626-27.853 15.442-39.281 26.829-9.953 9.912-15.196 19.579-15.196 28.017 0 24.003 39.404 53.74 93.43 70.533 24.535 7.619 53.207 12.902 89.416 16.466 13.804 1.393 79.258-0.614 94.454-2.867zM98.386 405.852c55.378-27.648 121.119-41.37 199.148-41.492 79.053-0.082 144.712 13.435 200.581 41.411 8.602 4.301 15.892 7.823 16.261 7.823 0.328 0 0.614-20.685 0.573-45.916 0-52.47-0.082-52.879-13.517-67.215-25.641-27.402-80.036-48.783-148.152-58.245-19.866-2.744-90.030-2.744-109.896 0-68.608 9.544-123.74 31.334-148.48 58.737-13.23 14.623-13.189 14.418-13.23 66.724 0 25.231 0.246 45.916 0.614 45.916s7.578-3.482 16.097-7.741zM101.007 198.758c72.827-35.84 178.053-49.48 274.268-35.471 42.68 6.185 87.368 19.292 118.989 34.816l19.538 9.544c0.655 0.287 1.188-20.193 1.147-45.548 0-53.002-0.041-53.043-14.336-68.116-28.467-30.147-89.661-52.265-163.021-58.982-24.084-2.171-79.094-0.86-101.745 2.458-63.242 9.298-115.794 30.679-140.534 57.221-13.517 14.459-13.599 14.787-13.64 67.42 0 25.354 0.532 45.834 1.188 45.548l18.145-8.888z" />
<glyph unicode="&#xe930;" glyph-name="compare" horiz-adv-x="1069" d="M490.719 958.13c-59.347-9.305-106.229-47.149-128.579-103.647l-4.764-12.021h-232.314l-9.439-4.942c-30.097-15.716-31.878-56.81-3.339-76.088l7.925-5.343 237.39-0.979 1.202-4.853c2.093-8.37 14.425-33.302 21.86-44.255 18.165-26.579 52.936-52.625 81.92-61.306l7.569-2.271v-578.070l-344.598-1.024-8.637-4.408c-16.339-8.37-24.754-22.038-24.754-40.337 0-18.076 10.596-33.569 28.004-40.826 5.298-2.226 59.303-2.582 394.017-2.538 371.757 0.045 388.141 0.178 394.997 3.295 26.936 12.243 34.771 48.262 15.36 70.344-5.476 6.233-15.761 11.531-26.179 13.446-6.901 1.291-65.18 1.914-175.638 1.914h-165.309v578.382l4.897 1.247c7.791 1.914 33.213 14.291 42.607 20.703 28.155 20.064 49.683 47.779 61.722 80.113l0.386 1.184 3.295 9.35 231.691 0.045 8.904 4.185c10.195 4.808 14.959 9.528 20.48 20.257 8.37 16.206 2.716 41.939-11.62 52.892-13.401 10.24-8.815 9.884-134.010 9.884h-115.445l-5.699 13.935c-20.48 50.042-60.371 85.126-111.972 98.349-16.161 4.141-46.57 5.832-61.93 3.384zM533.059 868.285c5.654-1.469 14.425-5.343 19.545-8.593 39.891-25.6 46.214-79.338 13.223-112.328-10.997-10.997-19.857-15.983-35.573-20.035-39.891-10.195-81.119 16.963-88.776 58.502-5.254 28.538 7.747 57.389 33.213 73.683 11.042 7.148 24.539 11.397 39.029 11.397 6.883 0 13.542-0.959 19.851-2.75l-0.511 0.124zM187.659 672.568c-5.714-2.847-10.558-6.582-14.561-11.082l-0.042-0.048c-8.949-11.219-148.035-226.438-156.36-241.976-9.892-18.956-15.696-41.401-15.696-65.2 0-13.539 1.878-26.64 5.388-39.055l-0.244 1.010c5.743-19.367 17.408-44.477 27.782-59.882 10.463-15.583 38.867-44.255 54.584-55.118 19.591-13.186 42.261-23.89 66.494-30.918l1.714-0.426c17.052-4.452 21.459-4.897 49.864-4.853 25.823 0.045 33.792 0.712 46.525 3.873 71.324 17.764 126.13 67.807 150.751 137.617 13.579 38.422 10.952 78.625-7.302 112.863-10.24 19.144-151.507 237.167-158.453 244.513-12.511 13.223-33.035 16.785-50.443 8.682zM805.576 674.883c-12.333-3.562-20.658-15.004-95.766-131.117-40.648-62.909-76.8-120.075-80.317-127.021-11.976-23.775-17.453-57.389-13.312-81.92 11.398-67.762 63.221-130.716 128.979-156.627 27.425-10.774 41.316-13.223 75.821-13.223 28.316 0 32.857 0.445 49.864 4.897 63.879 17.726 114.921 62.235 141.116 120.354l0.552 1.369c18.432 42.652 18.699 85.259 0.801 122.568-6.099 12.689-141.446 223.722-156.85 244.558-7.579 10.874-20.024 17.901-34.11 17.901-0.17 0-0.339-0.001-0.509-0.003h0.026c-5.774-0.003-11.398-0.635-16.811-1.832l0.516 0.096zM260.096 469.37c28.583-44.077 54.317-84.235 57.166-89.266 14.47-25.555 4.23-60.371-26.936-91.537-24.71-24.754-50.176-35.573-83.745-35.573-9.35 0-21.816 1.247-28.36 2.894-37.754 9.261-72.125 41.405-85.749 80.095-4.853 13.668-3.829 31.21 2.449 42.385 8.637 15.494 110.815 171.987 111.972 171.587 0.668-0.267 24.621-36.508 53.203-80.584zM876.989 465.363c30.319-46.792 56.543-89.043 58.279-93.941 4.764-13.579 4.096-24.487-2.627-40.96-15.137-37.265-46.703-65.358-83.968-74.797-13.98-3.517-41.316-3.428-56.053 0.223-38.734 9.528-73.639 42.741-86.506 82.365-1.621 4.82-2.556 10.37-2.556 16.138 0 9.778 2.687 18.928 7.363 26.752l-0.132-0.238c8.37 14.737 108.945 169.494 110.102 169.494 0.534-0.045 25.778-38.289 56.097-85.037z" />
<glyph unicode="&#xe931;" glyph-name="checked-oval" horiz-adv-x="906" d="M464.935 957.755c-8.586-2.757-18.668-11.303-22.961-19.417-2.56-4.844-3.308-8.94-3.348-17.92l-0.039-11.618-7.562-0.748-26.427-2.402c-81.566-7.404-168.054-42.693-234.772-95.783-19.85-15.793-56.005-51.988-71.483-71.522-34.231-43.288-61.364-94.045-78.55-149.188l-0.889-3.309c-11.804-38.331-18.602-82.395-18.602-128.046 0-64.604 13.613-126.028 38.128-181.56l-1.134 2.879c31.665-73.058 77.982-131.938 142.651-181.406 15.242-11.618 25.206-16.384 34.422-16.384 7.838 0 19.85 4.726 25.876 10.161 9.452 8.546 12.564 15.754 12.564 29.105 0 18.235-2.087 21.071-34.658 46.71-38.046 29.972-72.35 71.404-96.295 116.342-27.16 50.409-43.119 110.32-43.119 173.957 0 60.482 14.416 117.597 40 168.097l-0.977-2.126c36.313 72.113 92.672 129.142 163.052 164.982 47.813 24.379 90.033 36.076 147.18 40.842l10.594 0.866v-11.737c0-10.122 0.591-12.879 4.293-19.574 6.583-11.951 19.097-19.913 33.47-19.913 1.306 0 2.597 0.066 3.869 0.194l-0.16-0.013c9.946 0.695 18.738 5.139 25.068 11.912l0.020 0.022c8.625 9.334 40.094 54.351 42.26 60.495 2.599 7.326 2.757 18.471 0.394 25.482-2.127 6.223-34.58 60.062-41.354 68.529-9.177 11.54-27.057 16.738-41.511 12.091zM673.044 835.663c-13.112-3.64-23.367-13.388-27.642-25.907l-0.084-0.284c-2.678-7.562-2.639-13.351 0.118-22.764 3.111-10.358 7.365-15.084 27.097-29.854 59.904-44.977 101.258-99.958 127.724-169.945 30.326-80.030 30.562-176.404 0.67-257.339-18.59-50.373-53.642-104.212-90.782-139.54-27.241-25.934-58.446-48.059-92.54-65.305l-2.22-1.018c-43.52-21.228-77.548-30.799-131.151-36.982l-7.168-0.827v9.413c0 13.391-2.127 19.456-9.807 28.002-8.153 9.058-16.384 12.682-28.79 12.721-14.809 0.039-19.417-2.993-52.106-33.989-34.225-32.453-36.825-36.352-35.84-53.918 0.63-11.5 1.89-13.863 30.287-56.596 20.007-30.169 24.734-34.186 41.393-35.249 1.141-0.123 2.464-0.194 3.804-0.194 10.286 0 19.603 4.151 26.367 10.869l-0.002-0.002c8.271 7.601 11.934 16.975 11.697 30.011l-0.158 9.964 16.030 1.024c77.982 4.923 154.388 30.562 219.806 73.846 44.268 29.263 90.86 74.673 121.777 118.784 38.991 55.65 65.654 123.943 76.288 195.545 4.214 28.318 3.82 99.643-0.748 128.276-8.106 53.091-24.539 100.877-48.058 144.262l1.151-2.32c-18.865 36.273-34.777 59.471-62.543 91.097-23.591 26.86-69.041 65.89-87.867 75.382-4.978 2.566-10.864 4.070-17.102 4.070-3.413 0-6.72-0.45-9.867-1.295l0.266 0.061zM592.187 597.583c-6.774-2.087-34.225-28.199-120.359-114.53l-72.468-72.586-40.015 39.857c-22.016 21.898-42.338 40.96-45.174 42.417-6.774 3.387-20.401 4.529-28.396 2.402-9.295-2.521-18.511-10.279-23.552-19.81-3.938-7.483-4.293-9.334-3.702-19.732 0.433-8.271 1.536-12.918 3.82-16.62 1.772-2.836 28.908-30.72 60.298-61.991 55.966-55.808 57.226-56.95 65.89-59.431 3.34-1.095 7.183-1.727 11.174-1.727 6.868 0 13.299 1.87 18.812 5.129l-0.172-0.094c9.728 5.278 218.742 214.843 222.602 223.193 2.22 4.69 3.516 10.19 3.516 15.992 0 5.497-1.164 10.723-3.258 15.444l0.096-0.243c-4.014 8.695-10.403 15.719-18.338 20.404l-0.212 0.116c-5.396 2.836-23.67 3.899-30.562 1.812z" />
</font>
</defs>
</svg>
