<svg width="798" height="384" viewBox="0 0 798 384" fill="none" xmlns="http://www.w3.org/2000/svg">
<path opacity="0.1" fill-rule="evenodd" clip-rule="evenodd" d="M692.665 235.682C729.274 235.682 758.951 265.359 758.951 301.967C758.951 338.575 729.274 368.252 692.665 368.252C656.057 368.252 626.38 338.575 626.38 301.967C626.38 265.359 656.057 235.682 692.665 235.682ZM692.665 264.221C671.819 264.221 654.919 281.12 654.919 301.967C654.919 322.813 671.819 339.713 692.665 339.713C713.512 339.713 730.411 322.813 730.411 301.967C730.411 281.12 713.512 264.221 692.665 264.221Z" fill="#324A88"/>
<path opacity="0.1" fill-rule="evenodd" clip-rule="evenodd" d="M100.305 33.6688C155.702 33.6688 200.61 78.5769 200.61 133.974C200.61 189.371 155.702 234.279 100.305 234.279C44.908 234.279 0 189.371 0 133.974C0 78.5769 44.908 33.6688 100.305 33.6688ZM100.305 76.8557C68.7595 76.8557 43.1868 102.428 43.1868 133.974C43.1868 165.519 68.7595 191.092 100.305 191.092C131.85 191.092 157.423 165.519 157.423 133.974C157.423 102.428 131.85 76.8557 100.305 76.8557Z" fill="#324A88"/>
<path opacity="0.1" fill-rule="evenodd" clip-rule="evenodd" d="M762.107 0C781.67 0 797.53 15.8591 797.53 35.4224C797.53 54.9856 781.67 70.8447 762.107 70.8447C742.544 70.8447 726.685 54.9856 726.685 35.4224C726.685 15.8591 742.544 0 762.107 0ZM762.107 15.2513C750.967 15.2513 741.936 24.2822 741.936 35.4224C741.936 46.5625 750.967 55.5934 762.107 55.5934C773.247 55.5934 782.278 46.5625 782.278 35.4224C782.278 24.2822 773.247 15.2513 762.107 15.2513Z" fill="#324A88"/>
<g opacity="0.1">
<path d="M762.656 198.002C763.163 197.495 763.764 197.092 764.427 196.817C765.089 196.543 765.799 196.401 766.516 196.401C767.233 196.401 767.943 196.543 768.606 196.817C769.268 197.092 769.87 197.495 770.376 198.002L786.81 214.436C787.317 214.943 787.72 215.544 787.995 216.207C788.27 216.869 788.411 217.579 788.411 218.296C788.411 219.013 788.27 219.723 787.995 220.386C787.72 221.048 787.317 221.65 786.81 222.156C786.303 222.664 785.702 223.066 785.039 223.341C784.377 223.616 783.667 223.757 782.95 223.757C782.233 223.757 781.523 223.616 780.86 223.341C780.198 223.066 779.596 222.664 779.09 222.156L762.656 205.722C762.149 205.216 761.746 204.614 761.471 203.952C761.196 203.289 761.055 202.579 761.055 201.862C761.055 201.145 761.196 200.435 761.471 199.773C761.746 199.11 762.149 198.509 762.656 198.002Z" fill="#324A88"/>
<path d="M786.81 198.002C787.317 198.509 787.72 199.11 787.995 199.773C788.27 200.435 788.411 201.145 788.411 201.862C788.411 202.579 788.27 203.289 787.995 203.952C787.72 204.614 787.317 205.216 786.81 205.722L770.376 222.156C769.87 222.664 769.268 223.066 768.606 223.341C767.943 223.616 767.233 223.757 766.516 223.757C765.799 223.757 765.089 223.616 764.427 223.341C763.764 223.066 763.163 222.664 762.656 222.156C762.149 221.65 761.746 221.048 761.471 220.386C761.196 219.723 761.055 219.013 761.055 218.296C761.055 217.579 761.196 216.869 761.471 216.207C761.746 215.544 762.149 214.943 762.656 214.436L779.09 198.002C779.596 197.495 780.198 197.092 780.86 196.817C781.523 196.543 782.233 196.401 782.95 196.401C783.667 196.401 784.377 196.543 785.039 196.817C785.702 197.092 786.303 197.495 786.81 198.002Z" fill="#324A88"/>
</g>
<g opacity="0.1">
<path d="M512.166 75.8744C512.426 75.6141 512.734 75.4076 513.074 75.2667C513.414 75.1259 513.778 75.0533 514.145 75.0533C514.513 75.0533 514.877 75.1259 515.217 75.2667C515.557 75.4076 515.865 75.6141 516.125 75.8744L524.552 84.302C524.813 84.5618 525.019 84.8703 525.16 85.21C525.301 85.5496 525.374 85.9138 525.374 86.2815C525.374 86.6492 525.301 87.0133 525.16 87.353C525.019 87.6927 524.813 88.0012 524.552 88.261C524.293 88.5212 523.984 88.7277 523.644 88.8686C523.305 89.0095 522.941 89.082 522.573 89.082C522.205 89.082 521.841 89.0095 521.501 88.8686C521.162 88.7277 520.853 88.5212 520.593 88.261L512.166 79.8334C511.906 79.5736 511.699 79.265 511.558 78.9254C511.417 78.5857 511.345 78.2216 511.345 77.8539C511.345 77.4861 511.417 77.122 511.558 76.7824C511.699 76.4427 511.906 76.1342 512.166 75.8744Z" fill="#324A88"/>
<path d="M524.552 75.8744C524.813 76.1342 525.019 76.4427 525.16 76.7824C525.301 77.122 525.374 77.4861 525.374 77.8539C525.374 78.2216 525.301 78.5857 525.16 78.9254C525.019 79.265 524.813 79.5736 524.552 79.8334L516.125 88.261C515.865 88.5212 515.557 88.7277 515.217 88.8686C514.877 89.0095 514.513 89.082 514.145 89.082C513.778 89.082 513.414 89.0095 513.074 88.8686C512.734 88.7277 512.426 88.5212 512.166 88.261C511.906 88.0012 511.699 87.6927 511.558 87.353C511.417 87.0133 511.345 86.6492 511.345 86.2815C511.345 85.9138 511.417 85.5496 511.558 85.21C511.699 84.8703 511.906 84.5618 512.166 84.302L520.593 75.8744C520.853 75.6141 521.162 75.4076 521.501 75.2667C521.841 75.1259 522.205 75.0533 522.573 75.0533C522.941 75.0533 523.305 75.1259 523.644 75.2667C523.984 75.4076 524.293 75.6141 524.552 75.8744Z" fill="#324A88"/>
</g>
<g opacity="0.1">
<path d="M10.6411 355.746C10.9009 355.486 11.2094 355.279 11.5491 355.139C11.8888 354.998 12.2529 354.925 12.6206 354.925C12.9883 354.925 13.3524 354.998 13.6921 355.139C14.0318 355.279 14.3403 355.486 14.6001 355.746L23.0277 364.174C23.288 364.434 23.4944 364.742 23.6353 365.082C23.7762 365.421 23.8487 365.786 23.8487 366.153C23.8487 366.521 23.7762 366.885 23.6353 367.225C23.4944 367.564 23.288 367.873 23.0277 368.133C22.7679 368.393 22.4594 368.6 22.1197 368.74C21.78 368.881 21.4159 368.954 21.0482 368.954C20.6805 368.954 20.3164 368.881 19.9767 368.74C19.637 368.6 19.3285 368.393 19.0687 368.133L10.6411 359.705C10.3808 359.445 10.1744 359.137 10.0335 358.797C9.89259 358.458 9.82007 358.093 9.82007 357.726C9.82007 357.358 9.89259 356.994 10.0335 356.654C10.1744 356.315 10.3808 356.006 10.6411 355.746Z" fill="#324A88"/>
<path d="M23.0277 355.746C23.288 356.006 23.4944 356.315 23.6353 356.654C23.7762 356.994 23.8487 357.358 23.8487 357.726C23.8487 358.093 23.7762 358.458 23.6353 358.797C23.4944 359.137 23.288 359.445 23.0277 359.705L14.6001 368.133C14.3403 368.393 14.0318 368.6 13.6921 368.74C13.3524 368.881 12.9883 368.954 12.6206 368.954C12.2529 368.954 11.8888 368.881 11.5491 368.74C11.2094 368.6 10.9009 368.393 10.6411 368.133C10.3808 367.873 10.1744 367.564 10.0335 367.225C9.89259 366.885 9.82007 366.521 9.82007 366.153C9.82007 365.786 9.89259 365.421 10.0335 365.082C10.1744 364.742 10.3808 364.434 10.6411 364.174L19.0687 355.746C19.3285 355.486 19.637 355.279 19.9767 355.139C20.3164 354.998 20.6805 354.925 21.0482 354.925C21.4159 354.925 21.78 354.998 22.1197 355.139C22.4594 355.279 22.7679 355.486 23.0277 355.746Z" fill="#324A88"/>
</g>
<path opacity="0.1" fill-rule="evenodd" clip-rule="evenodd" d="M378.073 82.7692C396.28 82.7692 411.04 97.5292 411.04 115.737C411.04 133.944 396.28 148.704 378.073 148.704C359.865 148.704 345.105 133.944 345.105 115.737C345.105 97.5292 359.865 82.7692 378.073 82.7692ZM378.073 96.9634C367.704 96.9634 359.3 105.368 359.3 115.737C359.3 126.105 367.704 134.51 378.073 134.51C388.441 134.51 396.846 126.105 396.846 115.737C396.846 105.368 388.441 96.9634 378.073 96.9634Z" fill="#324A88"/>
<path opacity="0.1" d="M155.017 383.684C165.089 383.684 173.254 375.519 173.254 365.447C173.254 355.374 165.089 347.209 155.017 347.209C144.945 347.209 136.78 355.374 136.78 365.447C136.78 375.519 144.945 383.684 155.017 383.684Z" fill="#324A88"/>
<path opacity="0.1" d="M546.416 340.897C556.489 340.897 564.654 332.731 564.654 322.659C564.654 312.587 556.489 304.422 546.416 304.422C536.344 304.422 528.179 312.587 528.179 322.659C528.179 332.731 536.344 340.897 546.416 340.897Z" fill="#324A88"/>
<path opacity="0.1" d="M194.297 344.404C204.369 344.404 212.534 336.239 212.534 326.166C212.534 316.094 204.369 307.929 194.297 307.929C184.225 307.929 176.06 316.094 176.06 326.166C176.06 336.239 184.225 344.404 194.297 344.404Z" fill="#324A88"/>
</svg>
