<svg width="592" height="892" viewBox="0 0 592 892" fill="none" xmlns="http://www.w3.org/2000/svg">
<g clip-path="url(#clip0_28_19)">
<mask id="mask0_28_19" style="mask-type:alpha" maskUnits="userSpaceOnUse" x="0" y="0" width="592" height="981">
<rect width="592" height="981" fill="white"/>
</mask>
<g mask="url(#mask0_28_19)">
<path opacity="0.5" d="M3 506C3 229.858 226.858 6 503 6H670V1029H3V506Z" fill="#E4EAF0"/>
<path opacity="0.3" fill-rule="evenodd" clip-rule="evenodd" d="M196.5 645C277.41 645 343 710.59 343 791.5C343 872.41 277.41 938 196.5 938C115.59 938 50 872.41 50 791.5C50 710.59 115.59 645 196.5 645ZM196.5 708.076C150.426 708.076 113.076 745.426 113.076 791.5C113.076 837.574 150.426 874.924 196.5 874.924C242.574 874.924 279.924 837.574 279.924 791.5C279.924 745.426 242.574 708.076 196.5 708.076Z" fill="white"/>
<g opacity="0.3">
<path d="M161.389 490.389C162.778 488.998 164.428 487.894 166.244 487.141C168.06 486.388 170.006 486 171.972 486C173.938 486 175.885 486.388 177.701 487.141C179.517 487.894 181.166 488.998 182.555 490.389L227.611 535.445C229.002 536.834 230.106 538.483 230.859 540.299C231.612 542.115 232 544.062 232 546.028C232 547.994 231.612 549.94 230.859 551.756C230.106 553.572 229.002 555.222 227.611 556.611C226.222 558.002 224.572 559.106 222.756 559.859C220.94 560.612 218.994 561 217.028 561C215.062 561 213.115 560.612 211.299 559.859C209.483 559.106 207.834 558.002 206.445 556.611L161.389 511.555C159.998 510.166 158.894 508.517 158.141 506.701C157.388 504.885 157 502.938 157 500.972C157 499.006 157.388 497.06 158.141 495.244C158.894 493.428 159.998 491.778 161.389 490.389Z" fill="white"/>
<path d="M227.611 490.389C229.002 491.778 230.106 493.428 230.859 495.244C231.612 497.06 232 499.006 232 500.972C232 502.938 231.612 504.885 230.859 506.701C230.106 508.517 229.002 510.166 227.611 511.555L182.555 556.611C181.166 558.002 179.517 559.106 177.701 559.859C175.885 560.612 173.938 561 171.972 561C170.006 561 168.06 560.612 166.244 559.859C164.428 559.106 162.778 558.002 161.389 556.611C159.998 555.222 158.894 553.572 158.141 551.756C157.388 549.94 157 547.994 157 546.028C157 544.062 157.388 542.115 158.141 540.299C158.894 538.483 159.998 536.834 161.389 535.445L206.445 490.389C207.834 488.998 209.483 487.894 211.299 487.141C213.115 486.388 215.062 486 217.028 486C218.994 486 220.94 486.388 222.756 487.141C224.572 487.894 226.222 488.998 227.611 490.389Z" fill="white"/>
</g>
<path opacity="0.3" fill-rule="evenodd" clip-rule="evenodd" d="M563 375C672.905 375 762 464.095 762 574C762 683.905 672.905 773 563 773C453.095 773 364 683.905 364 574C364 464.095 453.095 375 563 375ZM563 460.681C500.415 460.681 449.681 511.415 449.681 574C449.681 636.585 500.415 687.319 563 687.319C625.585 687.319 676.319 636.585 676.319 574C676.319 511.415 625.585 460.681 563 460.681Z" fill="white"/>
</g>
</g>
<defs>
<clipPath id="clip0_28_19">
<rect width="592" height="892" fill="white"/>
</clipPath>
</defs>
</svg>
